<svg width="108" height="108" viewBox="0 0 108 108" fill="none" xmlns="http://www.w3.org/2000/svg">
<g clip-path="url(#clip0_105_1130)">
<path d="M108 0H0V108H108V0Z" fill="black"/>
<path d="M71.0576 26H26V38.8736H71.0576V26Z" fill="url(#paint0_linear_105_1130)"/>
<path d="M48.5288 47.8853H26V60.7588H48.5288V47.8853Z" fill="url(#paint1_linear_105_1130)"/>
<path d="M38.8736 68.1611H26V81.0347H38.8736V68.1611Z" fill="url(#paint2_linear_105_1130)"/>
<path d="M73.954 80.069C78.3976 80.069 81.9999 76.4667 81.9999 72.023C81.9999 67.5794 78.3976 63.9771 73.954 63.9771C69.5103 63.9771 65.908 67.5794 65.908 72.023C65.908 76.4667 69.5103 80.069 73.954 80.069Z" fill="#4CAF50"/>
</g>
<defs>
<linearGradient id="paint0_linear_105_1130" x1="26" y1="26" x2="31.2588" y2="48.2711" gradientUnits="userSpaceOnUse">
<stop stop-color="white"/>
<stop offset="0.7" stop-color="#E8E8E8"/>
<stop offset="1" stop-color="#D0D0D0"/>
</linearGradient>
<linearGradient id="paint1_linear_105_1130" x1="26" y1="47.8853" x2="35.0792" y2="67.1105" gradientUnits="userSpaceOnUse">
<stop stop-color="white"/>
<stop offset="0.7" stop-color="#E8E8E8"/>
<stop offset="1" stop-color="#D0D0D0"/>
</linearGradient>
<linearGradient id="paint2_linear_105_1130" x1="26" y1="68.1611" x2="37.546" y2="82.1319" gradientUnits="userSpaceOnUse">
<stop stop-color="white"/>
<stop offset="0.7" stop-color="#E8E8E8"/>
<stop offset="1" stop-color="#D0D0D0"/>
</linearGradient>
<clipPath id="clip0_105_1130">
<rect width="108" height="108" rx="24" fill="white"/>
</clipPath>
</defs>
</svg>
