<svg width="396" height="330" viewBox="0 0 396 330" fill="none" xmlns="http://www.w3.org/2000/svg">
<path d="M318.424 192.391C318.334 192.391 318.244 192.391 318.154 192.391L298.276 184.121C298.096 184.031 298.006 183.942 297.916 183.762C297.826 183.582 297.826 183.402 297.916 183.312L324.54 119.313C327.059 113.38 338.482 102.864 342.98 104.751C347.477 106.639 348.107 122.189 345.588 128.122L318.964 192.121C318.964 192.301 318.694 192.391 318.424 192.391ZM299.355 183.133L318.064 190.953L344.509 127.493C347.117 121.38 345.768 107.178 342.53 105.83C339.292 104.481 328.318 113.56 325.71 119.762L299.355 183.133Z" fill="#F1F1F1"/>
<path d="M314.736 194.638C314.646 194.638 314.556 194.638 314.466 194.638L299.895 188.436C299.535 188.346 299.445 187.987 299.535 187.627L300.884 184.481C300.974 184.301 301.064 184.211 301.244 184.121C301.424 184.031 301.604 184.031 301.694 184.121L316.355 190.234C316.715 190.324 316.805 190.683 316.715 191.043L315.366 194.189C315.276 194.368 315.186 194.458 315.006 194.548C314.916 194.638 314.826 194.638 314.736 194.638ZM300.974 187.627L314.466 193.2L315.276 191.222L301.784 185.649L300.974 187.627Z" fill="#F1F1F1"/>
<path d="M324.091 178.908C324.001 178.908 323.911 178.908 323.821 178.818L303.942 170.548C303.762 170.459 303.672 170.369 303.582 170.189C303.493 170.009 303.493 169.829 303.582 169.739L321.122 127.582C321.212 127.403 321.302 127.313 321.482 127.223C321.662 127.133 321.842 127.133 321.932 127.223L341.81 135.493C342.17 135.672 342.26 136.032 342.17 136.302L324.63 178.458C324.54 178.818 324.36 178.908 324.091 178.908ZM305.022 169.65L323.731 177.47L340.821 136.481L322.112 128.661L305.022 169.65Z" fill="#F1F1F1"/>
<path d="M290.36 181.784C290.18 181.784 289.91 181.694 289.82 181.515C289.73 181.335 289.641 181.155 289.73 180.975L291.979 175.582C292.069 175.402 292.159 175.312 292.339 175.223L303.223 171.088C303.493 170.998 303.762 171.088 303.942 171.268C304.122 171.447 304.122 171.717 304.032 171.987L300.075 181.515C299.985 181.784 299.715 181.874 299.535 181.874L290.36 181.784ZM293.059 176.301L291.26 180.526H299.085L302.323 172.796L293.059 176.301Z" fill="#F1F1F1"/>
<path d="M325.89 196.616C325.71 196.616 325.53 196.526 325.44 196.436L318.964 189.874C318.784 189.694 318.694 189.425 318.874 189.155L322.831 179.627C322.921 179.357 323.191 179.267 323.371 179.267C323.641 179.267 323.821 179.447 323.911 179.627L328.678 190.323C328.768 190.503 328.768 190.683 328.678 190.773L326.429 196.166C326.339 196.346 326.159 196.526 325.98 196.526L325.89 196.616ZM320.223 189.245L325.71 194.818L327.509 190.593L323.461 181.515L320.223 189.245Z" fill="#F1F1F1"/>
<path d="M314.286 174.503C314.196 174.503 314.106 174.503 314.016 174.414L106.326 88.0322C106.146 87.9423 106.056 87.8524 105.966 87.6727C105.876 87.4929 105.876 87.3131 105.966 87.2232L121.887 49.0213C121.977 48.7516 122.247 48.6617 122.517 48.6617L242.867 52.2572C243.047 52.2572 243.137 52.3471 243.317 52.437L330.657 135.223C330.837 135.403 330.927 135.672 330.837 135.942L314.916 174.234C314.826 174.414 314.736 174.503 314.556 174.593C314.466 174.503 314.376 174.503 314.286 174.503ZM107.406 87.1333L313.927 173.065L329.398 135.762L242.508 53.4258L122.787 49.8303L107.406 87.1333Z" fill="#F1F1F1"/>
<path d="M220.47 39.1337L268.233 58.9987C276.508 62.4144 280.376 71.9424 276.958 80.212L253.301 136.931C249.883 145.2 240.349 149.065 232.074 145.65L184.311 125.785C176.036 122.369 172.168 112.841 175.586 104.571L199.243 47.8527C202.751 39.673 212.285 35.718 220.47 39.1337Z" fill="#515151" fill-opacity="0.4"/>
<path d="M234.862 145.56C231.804 145.56 228.746 144.931 225.867 143.762L190.158 128.841C178.285 123.897 172.618 110.234 177.565 98.3692L196.184 53.6055C201.132 41.7405 214.714 36.0776 226.587 41.0214C226.587 41.0214 226.587 41.0214 226.677 41.0214L262.476 55.8527C274.349 60.7965 280.016 74.4593 275.069 86.3244L256.45 131.088C252.762 139.807 244.307 145.47 234.862 145.56ZM217.772 40.5719C208.867 40.5719 200.862 45.9652 197.444 54.1449L178.824 98.9086C174.147 110.144 179.454 123.088 190.698 127.762L226.497 142.594C237.74 147.268 250.693 141.964 255.37 130.729L273.99 85.9649C278.667 74.729 273.36 61.7853 262.026 57.1111L226.227 42.2798C223.529 41.1113 220.65 40.5719 217.772 40.5719Z" fill="#F1F1F1"/>
<path d="M109.924 105.74C109.834 105.74 109.744 105.74 109.654 105.65L89.7758 97.3804C89.5959 97.2906 89.5059 97.2007 89.416 97.0209C89.326 96.8411 89.326 96.6613 89.416 96.5714L116.041 32.572C117.3 29.6057 120.628 25.5608 124.496 22.3249C126.565 20.617 131.602 16.8417 134.39 18.0103C137.178 19.1788 138.078 25.4709 138.348 28.0776C138.798 33.2012 138.258 38.3247 137.089 41.3809L110.464 105.38C110.374 105.56 110.194 105.74 109.924 105.74ZM90.8551 96.4816L109.564 104.302L136.009 40.8416C137.178 38.0551 137.628 33.0214 137.268 28.1675C136.909 23.3136 135.559 19.808 134.12 19.1788C132.681 18.5496 129.263 20.1676 125.485 23.3136C121.707 26.4596 118.469 30.3248 117.3 33.1113L90.8551 96.4816Z" fill="#F1F1F1"/>
<path d="M106.236 107.897C106.146 107.897 106.056 107.897 105.966 107.807L91.3048 101.695C90.945 101.605 90.8551 101.156 90.945 100.886L92.2943 97.7399C92.3842 97.5602 92.4742 97.4703 92.6541 97.3804C92.834 97.2905 93.0139 97.2905 93.1038 97.3804L107.765 103.493C107.945 103.583 108.035 103.672 108.125 103.852C108.215 104.032 108.215 104.212 108.125 104.302L106.776 107.448C106.686 107.628 106.596 107.717 106.416 107.807C106.416 107.897 106.326 107.897 106.236 107.897ZM92.4742 100.886L99.2203 103.672L105.966 106.459L106.776 104.481L93.2837 98.9085L92.4742 100.886Z" fill="#F1F1F1"/>
<path d="M115.591 92.2569C115.501 92.2569 115.411 92.2569 115.321 92.167L95.4424 83.8974C95.2625 83.8076 95.1725 83.7177 95.0826 83.5379C94.9926 83.3581 94.9926 83.1783 95.0826 83.0885L112.622 40.9315C112.712 40.7517 112.802 40.6618 112.982 40.5719C113.162 40.482 113.342 40.482 113.432 40.5719L133.311 48.8415C133.67 48.9314 133.76 49.3809 133.67 49.6505L116.13 91.8075C116.041 92.0772 115.861 92.2569 115.591 92.2569ZM96.5218 82.9986L115.231 90.8187L132.321 49.8303L113.612 42.0101L96.5218 82.9986Z" fill="#F1F1F1"/>
<path d="M81.8603 95.0434C81.6804 95.0434 81.4105 94.9535 81.3206 94.7737C81.2306 94.5939 81.1407 94.4142 81.2306 94.1445L83.4793 88.7513C83.5693 88.5715 83.6592 88.4816 83.8391 88.3917L94.8128 84.2569C95.0826 84.1671 95.3525 84.2569 95.5324 84.4367C95.7123 84.6165 95.8022 84.8862 95.6223 85.1558L91.6646 94.6838C91.5747 94.9535 91.3048 95.0434 91.1249 95.0434H81.8603ZM84.5587 89.5603L82.7597 93.785H90.5852L93.8234 86.0547L84.5587 89.5603Z" fill="#F1F1F1"/>
<path d="M117.39 109.875C117.21 109.875 117.03 109.785 116.94 109.695L110.464 103.133C110.284 102.953 110.194 102.684 110.374 102.414L114.332 92.886C114.421 92.6164 114.691 92.5265 114.871 92.5265C115.141 92.5265 115.321 92.7063 115.411 92.886L120.088 103.583C120.178 103.762 120.178 103.942 120.088 104.122L117.84 109.515C117.75 109.695 117.57 109.875 117.39 109.875ZM111.723 102.504L117.21 108.077L119.009 103.852L114.961 94.7737L111.723 102.504Z" fill="#F1F1F1"/>
<path d="M188.809 58.9987L135.649 56.5718C135.289 56.5718 135.02 56.3021 135.02 55.9426C135.02 55.583 135.289 55.3134 135.649 55.3134L188.809 57.7403C189.168 57.7403 189.438 58.01 189.438 58.3695C189.528 58.7291 189.258 58.9987 188.809 58.9987Z" fill="#515151"/>
<path d="M323.101 137.29C322.921 137.29 322.741 137.2 322.652 137.111L277.498 95.2232C277.228 94.9535 277.228 94.594 277.498 94.3243C277.767 94.0547 278.127 94.0547 278.397 94.3243L323.551 136.302C323.821 136.571 323.821 136.931 323.551 137.2C323.461 137.2 323.281 137.29 323.101 137.29Z" fill="#515151"/>
<path d="M187.639 254.593L175.856 264.39C175.856 264.39 200.772 308.615 204.37 302.053C206.079 298.907 202.121 276.885 202.121 276.885" fill="#181818"/>
<path d="M203.29 303.311C197.174 303.311 177.565 268.615 175.316 264.66C175.137 264.39 175.227 264.031 175.496 263.851L187.19 254.053C187.46 253.873 187.909 253.963 188.089 254.233C188.269 254.503 188.179 254.772 187.999 255.042L176.666 264.48C184.941 279.222 199.333 301.963 203.29 301.963C203.38 301.963 203.65 301.963 203.74 301.603C204.909 299.446 203.021 285.604 201.401 276.885C201.312 276.525 201.491 276.165 201.851 276.076C202.211 275.986 202.571 276.165 202.661 276.525V276.615C203.11 278.862 206.708 298.907 204.909 302.143C204.64 302.862 204.01 303.311 203.29 303.311Z" fill="#F1F1F1"/>
<path d="M268.863 85.785C268.863 85.785 338.482 142.953 309.519 147.178C285.323 150.683 263.376 137.83 263.376 137.83L270.212 122.639C270.212 122.639 292.519 132.976 291.709 128.391C290.9 123.807 260.677 105.74 260.677 105.74L268.863 85.785Z" fill="#389289"/>
<path d="M206.798 62.774C206.798 62.774 136.729 55.0437 134.84 65.7403C132.951 76.4368 163.174 100.077 163.983 98.549C164.793 97.0209 180.803 87.6727 180.803 87.6727L166.771 76.5267L200.322 84.0772L206.798 62.774Z" fill="#389289"/>
<path d="M266.794 47.4032C268.773 43.628 267.423 38.864 265.085 35.2685C259.148 26.1 248.534 21.0663 237.651 22.3248C232.793 22.954 227.756 25.1113 225.238 29.3359C227.936 28.7966 230.635 28.7067 233.333 29.0663C227.307 31.673 222.719 36.7067 220.65 42.9089C220.381 43.5381 220.381 44.2572 220.56 44.8864C221.01 45.965 222.629 45.965 223.709 45.6954C224.788 45.4257 226.137 44.8864 227.217 45.4257C223.799 46.774 221.01 49.4706 219.571 52.8863C218.851 54.3245 218.582 56.0324 218.941 57.6503C219.301 58.8189 219.931 59.8076 220.83 60.6166C222.899 62.5941 225.688 63.5829 228.476 64.4817C233.423 66.0997 238.55 67.448 243.677 66.8188C249.884 66.0098 254.921 62.3245 259.418 58.2795C261.487 56.3919 263.466 56.3919 265.714 54.9537C267.064 54.0549 267.873 52.7066 268.053 51.0886C267.783 49.8302 267.334 48.5717 266.794 47.4032Z" fill="#181818"/>
<path d="M241.069 67.5379C236.661 67.5379 232.434 66.2795 228.386 65.0211C225.508 64.0324 222.629 63.0436 220.56 61.0661C219.571 60.1672 218.851 59.0886 218.492 57.8302C218.132 56.0324 218.312 54.2347 219.121 52.6167C220.291 49.9201 222.18 47.6729 224.698 46.1449L224.518 46.2347L224.068 46.3246C222.719 46.6842 220.83 46.6842 220.111 45.246C219.841 44.437 219.841 43.628 220.201 42.819C222.09 37.246 225.957 32.482 231.084 29.6057C229.195 29.5158 227.307 29.6955 225.508 30.0551C225.238 30.145 225.058 29.9652 224.878 29.7854C224.788 29.6057 224.788 29.336 224.878 29.0663C227.217 25.2012 231.894 22.5046 237.741 21.6956C248.804 20.3473 259.688 25.5607 265.804 34.909C267.154 37.0663 270.032 42.5494 267.603 47.4033C268.143 48.5718 268.503 49.8302 268.773 51.0886C268.593 52.8864 267.603 54.4145 266.164 55.4032C265.265 55.9425 264.365 56.392 263.376 56.7515C262.116 57.201 260.947 57.8302 259.958 58.6391C256 62.2346 250.513 66.4593 243.857 67.2683C242.868 67.4481 241.968 67.5379 241.069 67.5379ZM226.227 44.5269C226.677 44.5269 227.217 44.6168 227.576 44.8864C227.846 45.0662 228.026 45.4258 227.846 45.6954C227.756 45.7853 227.666 45.9651 227.486 45.9651C224.248 47.3134 221.55 49.8302 220.201 53.0661C219.481 54.4145 219.301 55.9425 219.661 57.4706C220.021 58.4594 220.56 59.4481 221.37 60.0773C223.259 61.965 225.957 62.8638 228.746 63.7627C233.513 65.2908 238.55 66.729 243.587 66.0998C249.884 65.2908 254.921 61.4256 258.968 57.7403C260.048 56.7515 261.397 56.0324 262.746 55.583C263.646 55.2234 264.455 54.8639 265.265 54.4145C266.434 53.6954 267.154 52.4369 267.333 51.0886C267.064 49.9201 266.614 48.8415 266.164 47.7628C266.074 47.583 266.074 47.3134 266.164 47.1336C268.503 42.819 265.804 37.6056 264.545 35.6281C258.698 26.7293 248.354 21.7855 237.741 22.954C232.883 23.5832 228.926 25.5607 226.587 28.527C228.836 28.2573 231.084 28.1675 233.333 28.4371C233.603 28.4371 233.873 28.7068 233.873 28.9764C233.873 29.2461 233.783 29.5158 233.513 29.6057C227.666 32.1225 223.169 36.9764 221.19 42.9988C221.01 43.4482 220.92 43.9876 221.1 44.5269C221.46 45.246 222.629 45.246 223.529 44.9763L223.978 44.8864C224.788 44.7067 225.508 44.5269 226.227 44.5269Z" fill="#F1F1F1"/>
<path d="M202.031 277.514C201.851 277.514 201.761 277.424 201.581 277.334L181.253 260.166C180.983 259.986 180.893 259.536 181.163 259.267C194.655 241.559 215.793 212.346 215.343 209.469C213.994 206.593 199.333 178.099 196.634 172.975L101.199 277.154C101.019 277.334 100.839 277.424 100.66 277.334C100.48 277.334 100.3 277.154 100.21 276.974L90.4954 251.806C90.4054 251.626 90.4054 251.357 90.5853 251.267L168.57 139.447C168.75 139.268 169.02 139.088 169.29 139.178L225.597 156.796C225.777 156.885 225.867 156.975 225.957 157.155C226.857 159.223 248.804 207.851 244.846 217.829C240.979 227.716 204.19 275.267 202.661 277.244C202.391 277.334 202.301 277.424 202.031 277.514ZM182.602 259.536L201.941 275.896C206.079 270.592 239.989 226.458 243.587 217.289C247.185 208.121 226.587 161.739 224.788 157.874L169.2 140.526L91.6647 251.626L100.839 275.446L196.364 171.447C196.544 171.267 196.724 171.267 196.904 171.267C197.084 171.267 197.264 171.447 197.354 171.627C198.073 172.975 215.074 205.784 216.513 209.02C217.952 212.256 191.417 247.941 182.602 259.536Z" fill="#F1F1F1"/>
<path d="M225.238 157.425L168.93 139.807L221.73 70.8638C221.73 70.8638 247.995 83.5378 251.233 88.6614C254.471 93.7849 225.238 157.425 225.238 157.425Z" fill="#181818"/>
<path d="M225.238 158.054C225.148 158.054 225.148 158.054 225.058 158.054L168.75 140.436C168.57 140.346 168.391 140.256 168.301 140.077C168.211 139.897 168.301 139.627 168.391 139.537L221.19 70.5941C221.37 70.3244 221.73 70.2346 222 70.4143C223.079 70.9537 248.534 83.2682 251.772 88.3917C255.011 93.5153 228.836 151.223 225.867 157.784C225.687 157.874 225.508 158.054 225.238 158.054ZM170.01 139.448L224.968 156.616C236.211 132.077 252.942 92.4366 250.783 88.931C247.905 84.4367 225.508 73.2907 222 71.5829L170.01 139.448Z" fill="#F1F1F1"/>
<path d="M235.942 70.2346C234.952 70.1447 229.735 81.83 229.285 82.8188C224.248 92.167 219.571 101.965 214.264 111.043C203.83 129.111 181.073 139.987 163.443 149.335C161.105 150.594 158.496 151.852 155.888 151.402C153.999 150.863 152.38 149.874 151.03 148.526C145.004 143.133 140.147 136.571 136.819 129.2C136.279 128.212 136.009 127.223 136.099 126.144C136.369 124.347 137.718 122.908 139.517 122.459C148.872 120.841 162.634 119.762 170.189 114.908C182.782 106.908 197.264 83.3581 206.888 62.6841C218.492 65.5605 228.656 68.5267 235.942 70.2346Z" fill="#389289"/>
<path d="M268.863 85.785C269.132 85.9648 257.529 113.74 256.989 115.088C252.672 125.245 237.471 143.852 228.386 149.695C234.232 139.268 235.942 122.818 236.391 111.043C236.571 105.29 241.338 95.313 243.497 90.0097C243.677 89.4704 245.566 73.0211 245.296 72.8413C245.206 72.8413 261.577 79.9424 268.863 85.785Z" fill="#389289"/>
<path d="M248.894 74.2794L245.656 85.4254C245.656 85.4254 242.688 90.0995 235.762 86.1445C228.836 82.1895 229.195 76.7962 229.195 76.7962L236.032 56.302C236.032 56.302 241.608 54.4144 243.407 42.01C243.407 42.01 253.841 48.8414 265.355 50.5493C265.355 50.5493 261.667 64.1222 259.148 69.6053C256.63 75.0884 248.894 74.2794 248.894 74.2794Z" fill="#181818"/>
<path d="M240.889 88.3018C239 88.2119 237.111 87.6726 235.492 86.6838C228.296 82.6389 228.566 76.976 228.566 76.7963C228.566 76.7064 228.566 76.7064 228.566 76.6165L235.402 56.1223C235.492 55.9425 235.582 55.7627 235.762 55.7627C235.762 55.7627 240.979 53.7852 242.688 42.01C242.688 41.8302 242.868 41.6505 243.047 41.5606C243.227 41.4707 243.497 41.4707 243.677 41.5606C243.767 41.6505 254.201 48.3021 265.355 50.01C265.534 50.01 265.714 50.0998 265.804 50.2796C265.894 50.4594 265.894 50.6392 265.894 50.8189C265.714 51.3583 262.206 64.4818 259.598 69.9649C257.259 74.9985 251.143 75.0884 249.254 74.9985L246.106 85.6052C246.106 85.6951 246.106 85.6951 246.016 85.785C244.936 87.4029 242.957 88.3917 240.889 88.3018ZM229.825 76.8862C229.825 77.5154 229.915 82.0996 236.121 85.5153C242.058 88.8411 244.666 85.6052 245.116 85.0659L248.354 74.0997C248.444 73.83 248.714 73.6502 249.074 73.6502C249.164 73.6502 256.36 74.3693 258.608 69.3357C260.767 64.6615 263.825 53.8751 264.635 50.9987C255.28 49.3807 246.645 44.5269 243.947 42.9988C242.238 53.3358 237.83 56.1223 236.661 56.6616L229.825 76.8862Z" fill="#F1F1F1"/>
<path d="M239.719 56.7515C239.719 55.6728 239.449 54.5942 238.82 53.6953C238.19 52.8863 237.471 52.1672 236.571 51.6279C236.121 51.2684 235.672 50.9987 235.132 50.9088C234.772 50.9088 234.322 50.9088 233.963 50.9987C233.063 51.1785 232.254 51.6279 231.624 52.347C231.264 52.9762 230.994 53.6953 230.904 54.4144C230.724 55.2234 230.725 56.0324 230.814 56.8413C231.264 60.1672 234.322 62.5941 237.651 62.1447H237.74" fill="#181818"/>
<path d="M236.931 62.8639C233.513 62.8639 230.635 60.347 230.185 56.9313C230.095 56.0325 230.095 55.2235 230.275 54.3246C230.365 53.5156 230.635 52.6168 231.084 51.8977C231.804 51.0887 232.703 50.4595 233.783 50.2797C234.232 50.1898 234.682 50.0999 235.222 50.1898C235.852 50.3696 236.481 50.6392 237.021 50.9988C237.92 51.628 238.73 52.3471 239.36 53.1561C240.079 54.1448 240.439 55.4033 240.349 56.5718C240.349 56.9313 240.079 57.201 239.719 57.201C239.36 57.201 239.09 56.9313 239.09 56.5718C239.09 55.583 238.82 54.6842 238.28 53.8752C237.74 53.1561 237.021 52.5269 236.211 51.9876C235.852 51.7179 235.402 51.4482 234.952 51.3583C234.682 51.3583 234.322 51.3583 234.053 51.4482C233.243 51.5381 232.613 51.9876 232.074 52.5269C231.714 53.0662 231.534 53.6954 231.534 54.3246C231.444 55.0437 231.354 55.8527 231.444 56.5718C231.804 59.5381 234.592 61.6953 237.561 61.3358H237.65C238.01 61.2459 238.28 61.5156 238.37 61.8751C238.46 62.2347 238.19 62.5043 237.83 62.5942C237.651 62.8639 237.291 62.8639 236.931 62.8639Z" fill="#F1F1F1"/>
<path d="M253.661 55.7627C253.661 55.7627 256.18 62.5941 255.011 63.4031C253.841 64.2121 251.413 62.8638 251.413 62.8638" fill="#181818"/>
<path d="M253.931 64.302C252.942 64.2121 251.862 63.9425 250.963 63.4931C250.603 63.3133 250.513 62.9537 250.603 62.6841C250.783 62.3245 251.143 62.2346 251.413 62.3245C251.413 62.3245 251.503 62.3245 251.503 62.4144C252.222 62.774 253.841 63.4032 254.471 62.9537C254.831 62.5043 254.111 59.2684 252.942 56.0324C252.852 55.6729 253.032 55.3133 253.302 55.2235C253.661 55.1336 254.021 55.3133 254.111 55.583C255.37 58.9088 256.45 63.0436 255.19 63.9425C254.921 64.2122 254.381 64.302 253.931 64.302Z" fill="#F1F1F1"/>
<path d="M248.894 74.2795C248.894 74.2795 243.137 72.4818 240.979 70.0548C240.979 70.0548 241.069 77.3357 246.825 80.9311L248.894 74.2795Z" fill="#F1F1F1"/>
<path d="M246.825 81.5603C246.735 81.5603 246.555 81.5603 246.465 81.4704C240.529 77.6951 240.349 70.4143 240.349 70.0547C240.349 69.7851 240.529 69.5154 240.709 69.4255C240.979 69.3356 241.248 69.4255 241.428 69.6053C243.407 71.8525 248.984 73.6502 249.074 73.6502C249.434 73.7401 249.614 74.0996 249.524 74.4592L247.455 81.1108C247.365 81.2906 247.275 81.4704 247.095 81.4704C247.005 81.5603 246.915 81.5603 246.825 81.5603ZM241.788 71.5828C242.238 74.8187 243.947 77.785 246.465 79.8524L248.085 74.639C245.926 73.9199 243.767 72.9311 241.788 71.5828Z" fill="#F1F1F1"/>
<path d="M246.555 51.1785C246.555 51.1785 249.524 49.0212 250.963 52.8863L246.555 51.1785Z" fill="#181818"/>
<path d="M250.963 53.5156C250.693 53.5156 250.423 53.3359 250.423 53.0662C250.243 52.2572 249.704 51.628 248.984 51.2685C248.264 51.1786 247.635 51.2685 247.005 51.628C246.735 51.8078 246.286 51.7179 246.106 51.4482C245.926 51.1786 246.016 50.819 246.286 50.6393C247.185 50.01 248.264 49.8303 249.344 50.01C250.513 50.4595 251.323 51.4482 251.592 52.6168C251.682 52.9763 251.503 53.3359 251.233 53.4257C251.053 53.5156 251.053 53.5156 250.963 53.5156Z" fill="#F1F1F1"/>
<path d="M256.45 55.9425C256.45 55.9425 259.148 52.7066 260.857 56.5717L256.45 55.9425Z" fill="#181818"/>
<path d="M260.857 57.201C260.587 57.201 260.407 57.0212 260.318 56.8414C260.048 56.2122 259.598 55.4033 258.968 55.3134C258.339 55.2235 257.349 56.0325 257.079 56.392C256.9 56.6617 256.45 56.6617 256.18 56.4819C255.91 56.2122 255.91 55.8527 256.09 55.583C256.27 55.4033 257.529 53.8752 259.148 54.055C260.138 54.2347 260.947 54.9538 261.487 56.3021C261.577 56.6617 261.487 57.0212 261.127 57.1111C261.037 57.1111 260.947 57.201 260.857 57.201Z" fill="#F1F1F1"/>
<path d="M257.349 66.0998C257.349 66.0998 244.756 73.4705 244.756 60.347L257.349 66.0998Z" fill="#181818"/>
<path d="M250.513 68.7964C249.434 68.7964 248.354 68.5267 247.365 67.9874C245.206 66.729 244.127 64.2121 244.127 60.347C244.127 59.9874 244.397 59.7178 244.756 59.7178C245.116 59.7178 245.386 59.9874 245.386 60.347C245.386 63.7627 246.286 65.92 247.995 66.9087C251.323 68.7964 256.989 65.5604 257.079 65.5604C257.349 65.3807 257.799 65.5604 257.889 65.8301C257.979 66.0997 257.979 66.4593 257.709 66.6391C255.46 67.8975 253.032 68.6166 250.513 68.7964Z" fill="#F1F1F1"/>
<path d="M236.841 88.8412L230.904 90.549L232.883 94.4142C232.883 94.4142 217.772 113.74 208.327 114.549C202.841 114.908 197.444 113.65 192.676 110.863L182.602 115.538C182.602 115.538 191.777 123.358 192.317 123.987C192.856 124.616 208.058 129.021 218.402 117.605C224.518 110.953 230.005 103.673 234.862 96.0321L238.37 94.5041L236.841 88.8412Z" fill="#F1F1F1"/>
<path d="M211.566 109.965C211.296 109.965 211.026 109.695 210.936 109.425L208.148 90.7288C208.058 90.4592 208.327 90.0996 208.597 90.0097L218.042 86.9536L211.476 80.9311C211.296 80.7514 211.206 80.5716 211.296 80.3019C211.386 80.1222 211.476 79.9424 211.745 79.8525L225.957 74.9986C226.317 74.9087 226.677 75.0885 226.767 75.3582C226.857 75.7177 226.677 76.0772 226.407 76.1671L213.275 80.7514L219.841 86.7738C220.021 86.9536 220.111 87.1333 220.021 87.403C219.931 87.5828 219.841 87.7625 219.571 87.8524L209.677 91.0884L212.375 109.246C212.465 109.605 212.195 109.875 211.835 109.965H211.566Z" fill="#F1F1F1"/>
<path d="M177.295 130.189H177.205C177.115 130.189 164.163 127.582 157.147 125.964C156.787 125.875 156.607 125.515 156.697 125.245C156.787 124.976 157.147 124.706 157.417 124.796C164.433 126.414 177.295 128.931 177.475 129.021C177.835 129.111 178.015 129.47 177.925 129.74C177.835 130.009 177.565 130.189 177.295 130.189Z" fill="#F1F1F1"/>
<path d="M242.328 111.403C241.968 111.403 241.698 111.133 241.698 110.774C241.698 110.594 241.788 110.414 241.878 110.324L256.09 97.3805L249.794 91.8075C249.614 91.7176 249.524 91.4479 249.614 91.2681C249.614 91.0884 249.704 90.9086 249.884 90.8187L258.788 85.6952L253.032 81.021C252.762 80.8413 252.762 80.3918 252.942 80.1222C253.122 79.8525 253.571 79.8525 253.841 80.0323L260.318 85.3356C260.497 85.4255 260.587 85.6951 260.587 85.8749C260.587 86.0547 260.407 86.2345 260.228 86.4142L251.323 91.5378L257.529 97.0209C257.619 97.1108 257.709 97.2906 257.709 97.4703C257.709 97.6501 257.619 97.8299 257.529 97.9198L242.868 111.313C242.688 111.313 242.508 111.403 242.328 111.403Z" fill="#F1F1F1"/>
<path d="M208.597 146.549C208.238 146.549 207.968 146.279 207.968 145.919C207.968 145.829 207.968 145.74 208.058 145.65C208.148 145.38 222 120.481 228.746 106.998C228.926 106.729 229.285 106.549 229.555 106.729C229.825 106.908 230.005 107.268 229.825 107.538C223.079 121.021 209.227 145.919 209.137 146.189C209.047 146.459 208.777 146.549 208.597 146.549Z" fill="#515151"/>
<path d="M91.035 251.626L79.8815 265.469C79.8815 265.469 87.707 302.053 92.6541 297.918C97.6013 293.783 100.749 276.795 100.749 276.795L91.035 251.626Z" fill="#181818"/>
<path d="M91.7546 298.817C91.5747 298.817 91.3049 298.817 91.125 298.727C85.9979 296.929 79.8815 268.795 79.1619 265.559C79.0719 265.379 79.1619 265.199 79.2518 265.02L90.4054 251.177C90.5853 250.997 90.7652 250.907 90.9451 250.997C91.2149 250.997 91.3948 251.177 91.4848 251.357L101.199 276.525C101.199 276.615 101.199 276.795 101.199 276.885C101.109 277.604 97.8711 294.143 92.834 298.368C92.5642 298.637 92.2044 298.817 91.7546 298.817ZM80.5111 265.559C83.0297 277.424 88.2466 296.39 91.5747 297.469C91.7546 297.559 92.0245 297.469 92.2044 297.379C96.6118 293.693 99.76 278.592 100.12 276.795L90.8552 252.795L80.5111 265.559Z" fill="#F1F1F1"/>
<path d="M213.904 59.9875C213.904 59.9875 204.37 92.3468 195.555 100.886C186.74 109.425 167.851 119.942 170.189 114.908C172.528 109.875 183.502 105.92 191.237 91.7176C198.973 77.5155 204.01 57.7403 204.01 57.7403C204.01 57.7403 203.29 54.2347 208.507 55.4033C213.724 56.5718 213.904 59.9875 213.904 59.9875Z" fill="#F1F1F1"/>
<path d="M244.667 133.695C250.873 127.672 256.18 120.751 260.497 113.29C265.984 103.672 270.212 90.2793 271.741 85.1557C272.101 83.8973 271.561 82.6389 270.392 82.0097L268.683 81.1108C267.333 80.4816 265.714 81.021 265.085 82.3693C264.995 82.549 264.995 82.6389 264.905 82.8187C262.476 91.5377 255.011 116.526 244.667 133.695Z" fill="#F1F1F1"/>
<path d="M175.946 89.0209C176.846 90.0096 185.121 95.313 185.121 95.313C185.121 95.313 188.809 90.1894 192.407 89.3804L190.068 93.5152L201.671 93.695C201.671 93.695 201.671 104.661 191.507 106.818C181.343 108.976 164.073 98.459 164.073 98.459" fill="#181818"/>
<path d="M188.449 107.807C178.195 107.807 164.343 99.4478 163.713 99.0883C163.443 98.9085 163.353 98.459 163.533 98.1894C163.713 97.9197 164.073 97.8298 164.343 98.0096C164.523 98.0995 181.613 108.436 191.417 106.279C199.782 104.481 200.862 96.6613 201.042 94.3242L190.068 94.1445C189.888 94.1445 189.618 94.0546 189.528 93.7849C189.438 93.6052 189.438 93.3355 189.528 93.1557L190.967 90.549C188.179 92.0771 185.571 95.5827 185.571 95.5827C185.391 95.8523 185.031 95.9422 184.671 95.7624C183.772 95.2231 176.216 90.3692 175.317 89.3805C175.047 89.1108 175.137 88.7513 175.317 88.4816C175.586 88.2119 175.946 88.3018 176.216 88.4816C176.756 89.1108 181.613 92.2568 184.761 94.3242C185.75 92.9759 188.899 89.3805 192.047 88.6614C192.407 88.5715 192.676 88.8412 192.766 89.1108C192.766 89.2906 192.766 89.3805 192.676 89.5602L190.878 92.7063L201.401 92.8861C201.761 92.8861 202.031 93.1557 202.031 93.5153C202.031 93.6052 201.941 105.021 191.327 107.268C190.608 107.717 189.528 107.807 188.449 107.807Z" fill="#F1F1F1"/>
<path d="M269.852 124.616L262.296 120.032L260.497 113.29L256.989 117.245C256.989 117.245 252.042 113.111 248.804 114.639C246.196 115.807 245.116 122.369 247.545 125.605C249.973 128.841 264.545 136.571 264.545 136.571" fill="#181818"/>
<path d="M264.545 137.2C264.455 137.2 264.365 137.2 264.275 137.11C263.646 136.751 249.524 129.29 247.005 125.964C245.296 123.717 245.296 120.301 245.836 118.144C246.286 116.167 247.275 114.639 248.534 114.099C251.503 112.751 255.55 115.448 256.989 116.436L260.138 112.931C260.407 112.661 260.767 112.661 261.037 112.841C261.127 112.931 261.217 113.021 261.217 113.111L262.926 119.582L270.212 124.077C270.482 124.257 270.661 124.616 270.482 124.976C270.302 125.245 269.942 125.425 269.672 125.245C269.672 125.245 269.672 125.245 269.582 125.245L262.026 120.661C261.847 120.571 261.757 120.481 261.757 120.301L260.317 114.639L257.619 117.695C257.439 117.964 256.989 117.964 256.72 117.785C255.37 116.706 251.503 114.189 249.164 115.268C248.354 115.627 247.635 116.886 247.185 118.504C246.645 120.571 246.735 123.537 248.085 125.335C250.423 128.391 264.725 136.032 264.905 136.122C265.265 136.301 265.355 136.661 265.175 137.02C264.995 137.11 264.725 137.2 264.545 137.2Z" fill="#F1F1F1"/>
<path d="M8.64232 233.559C8.55237 233.559 8.37247 233.559 8.28252 233.469C8.01268 233.289 7.92273 232.84 8.10263 232.57L86.4475 108.706C86.6274 108.437 87.0771 108.347 87.3469 108.526C87.6168 108.706 87.7067 109.156 87.5268 109.425L9.182 233.2C9.00211 233.379 8.82221 233.559 8.64232 233.559Z" fill="#515151"/>
<path d="M59.2831 226.098C58.9233 226.098 58.6534 225.829 58.6534 225.469C58.6534 225.379 58.6534 225.29 58.7434 225.2L101.109 114.908C101.199 114.549 101.649 114.369 101.919 114.549C102.278 114.639 102.458 115.088 102.278 115.358L59.9127 225.649C59.8228 225.919 59.5529 226.098 59.2831 226.098Z" fill="#515151"/>
<path d="M227.576 311.581C227.486 311.581 227.306 311.581 227.216 311.491C226.947 311.311 226.857 310.862 227.036 310.592L295.937 197.065C296.117 196.706 296.476 196.616 296.836 196.795C297.196 196.975 297.286 197.335 297.106 197.694C297.106 197.694 297.106 197.784 297.016 197.784L228.116 311.311C228.026 311.491 227.846 311.581 227.576 311.581Z" fill="#515151"/>
<path d="M279.116 307.356H278.937C278.577 307.266 278.397 306.907 278.487 306.547C281.725 295.761 310.598 201.649 311.048 200.57C311.228 200.211 311.588 200.121 311.947 200.301C312.217 200.481 312.397 200.84 312.217 201.11C311.588 202.728 290.63 270.952 279.656 306.907C279.656 307.176 279.386 307.356 279.116 307.356Z" fill="#515151"/>
<path d="M263.196 301.514C263.106 301.514 263.016 301.514 262.926 301.424C262.566 301.334 262.476 300.884 262.566 300.615L286.852 240.211C286.942 239.851 287.392 239.761 287.662 239.851C287.931 239.941 288.111 240.391 288.021 240.66L263.735 301.064C263.645 301.334 263.466 301.514 263.196 301.514Z" fill="#515151"/>
<path d="M44.4416 205.425C44.0819 205.425 43.812 205.155 43.812 204.795C43.812 204.705 43.812 204.526 43.902 204.436L74.0346 150.504C74.2145 150.144 74.5743 150.054 74.9341 150.234C75.2939 150.414 75.3838 150.773 75.2039 151.133L45.0713 205.065C44.8914 205.335 44.7115 205.425 44.4416 205.425Z" fill="#515151"/>
<path d="M38.775 246.053C38.685 246.053 38.5951 246.053 38.5052 245.963C38.1454 245.784 38.0554 245.424 38.1454 245.154L46.0608 226.278C46.2407 225.919 46.6005 225.829 46.9603 225.919C47.2301 226.098 47.41 226.458 47.3201 226.728L39.4046 245.604C39.2247 245.874 39.0448 246.053 38.775 246.053Z" fill="#515151"/>
<path d="M241.338 312.21C240.978 312.21 240.709 311.941 240.709 311.581C240.709 311.491 240.709 311.401 240.799 311.311L253.751 287.851C253.931 287.581 254.291 287.401 254.651 287.581C255.01 287.761 255.1 288.12 254.92 288.48L241.968 311.941C241.788 312.12 241.608 312.21 241.338 312.21Z" fill="#515151"/>
</svg>
