<svg width="108" height="108" viewBox="0 0 108 108" fill="none" xmlns="http://www.w3.org/2000/svg">
<g clip-path="url(#clip0_105_1140)">
<path d="M108 0H0V108H108V0Z" fill="white"/>
<path opacity="0.5" d="M108 0H0V108H108V0Z" fill="url(#paint0_linear_105_1140)"/>
<path d="M71.0575 27H26V40.9765H71.0575V27Z" fill="url(#paint1_linear_105_1140)"/>
<path d="M48.5287 46.6941H26V60.6706H48.5287V46.6941Z" fill="url(#paint2_linear_105_1140)"/>
<path d="M38.8736 66.7059H26V80.6823H38.8736V66.7059Z" fill="url(#paint3_linear_105_1140)"/>
<path d="M73.954 81C78.3977 81 82 77.4446 82 73.0588C82 68.673 78.3977 65.1176 73.954 65.1176C69.5104 65.1176 65.908 68.673 65.908 73.0588C65.908 77.4446 69.5104 81 73.954 81Z" fill="#2E8B57"/>
</g>
<defs>
<linearGradient id="paint0_linear_105_1140" x1="0" y1="0" x2="108" y2="109.454" gradientUnits="userSpaceOnUse">
<stop stop-color="#56F915"/>
<stop offset="1" stop-color="white"/>
</linearGradient>
<linearGradient id="paint1_linear_105_1140" x1="26" y1="27" x2="74.0703" y2="87.3194" gradientUnits="userSpaceOnUse">
<stop stop-color="#1A1A1A"/>
<stop offset="0.7" stop-color="#2D2D2D"/>
<stop offset="1" stop-color="#404040"/>
</linearGradient>
<linearGradient id="paint2_linear_105_1140" x1="26" y1="27" x2="74.0703" y2="87.3194" gradientUnits="userSpaceOnUse">
<stop stop-color="#1A1A1A"/>
<stop offset="0.7" stop-color="#2D2D2D"/>
<stop offset="1" stop-color="#404040"/>
</linearGradient>
<linearGradient id="paint3_linear_105_1140" x1="26" y1="27" x2="74.0703" y2="87.3194" gradientUnits="userSpaceOnUse">
<stop stop-color="#1A1A1A"/>
<stop offset="0.7" stop-color="#2D2D2D"/>
<stop offset="1" stop-color="#404040"/>
</linearGradient>
<clipPath id="clip0_105_1140">
<rect width="108" height="108" rx="24" fill="white"/>
</clipPath>
</defs>
</svg>
