<svg width="373" height="315" viewBox="0 0 373 315" fill="none" xmlns="http://www.w3.org/2000/svg">
<path d="M350.557 247.073C350.653 245.055 350.269 243.038 349.311 241.212C348.544 239.867 347.298 238.906 346.628 237.465C345.478 235.063 346.34 232.277 346.053 229.683C345.861 227.473 344.903 225.455 343.274 223.822C341.932 222.477 340.111 221.516 338.865 220.075C336.757 217.673 336.086 214.406 334.936 211.428C333.211 207.201 330.24 203.742 326.407 201.34C328.707 206.048 323.436 212.004 325.832 216.712C326.599 218.153 328.036 219.306 328.611 220.844C329.953 224.591 325.449 228.722 326.886 232.469C327.653 234.391 329.665 235.448 330.528 237.177C331.774 239.579 330.815 242.461 330.911 245.247C331.007 248.994 333.307 252.357 335.99 254.951C337.715 256.585 339.536 257.93 341.357 259.371C343.561 261.1 344.423 262.926 346.34 260.14C348.928 256.2 350.461 251.685 350.557 247.073Z" fill="#231F20"/>
<path d="M352.953 249.187C352.282 246.304 351.803 243.134 352.953 240.444C354.294 237.369 357.648 235.159 357.936 231.797C358.223 229.587 357.073 227.377 357.553 225.263C358.032 223.15 359.757 221.612 361.194 220.075C364.548 216.424 366.561 211.716 366.848 206.72C368.957 209.506 371.065 212.293 372.215 215.559C373.365 218.826 373.365 222.669 371.448 225.551C370.873 226.224 370.394 226.993 370.107 227.761C369.436 229.875 371.257 231.893 372.215 233.91C373.365 236.216 373.077 239.002 371.544 241.116C369.627 243.518 365.986 244.383 365.027 247.361C364.836 248.418 364.644 249.571 364.74 250.628C364.357 254.567 361.577 257.834 357.84 258.891C355.54 259.467 355.636 258.506 355.253 256.681C354.582 254.183 353.528 251.685 352.953 249.187Z" fill="#231F20"/>
<path d="M345.765 228.434C344.136 222.861 343.561 217.097 341.836 211.524C340.399 207.201 338.674 202.973 336.565 198.938L343.465 201.82C345.669 202.781 348.065 203.838 349.119 206.048C350.94 209.795 347.682 214.599 349.598 218.346C350.269 219.691 351.515 220.555 352.282 221.804C354.294 224.687 354.007 228.53 352.857 231.893C352.378 233.334 350.269 240.636 348.448 238.618C347.682 237.753 347.682 234.775 347.298 233.622C346.819 231.797 346.244 230.067 345.765 228.434Z" fill="#231F20"/>
<path d="M349.407 302.222C348.065 293.094 343.753 261.1 343.657 260.812L345.094 260.62C345.094 260.908 349.407 292.902 350.844 302.029L349.407 302.222Z" fill="#231F20"/>
<path d="M351.228 310.773H349.79C349.886 300.012 354.39 258.698 356.978 255.912L358.032 256.873C356.115 258.987 351.323 298.763 351.228 310.773Z" fill="#231F20"/>
<path d="M353.623 308.755L352.186 308.659C353.24 285.408 348.257 236.6 348.257 236.12L349.694 236.024C349.694 236.504 354.582 285.408 353.623 308.755Z" fill="#231F20"/>
<path d="M353.049 315H348.065C343.178 315 339.153 310.773 338.865 305.392L337.044 276.281C337.044 276.088 337.14 275.896 337.236 275.704C337.332 275.512 337.524 275.512 337.715 275.512H363.303C363.494 275.512 363.686 275.608 363.782 275.704C363.878 275.896 363.973 276.088 363.973 276.281L362.153 305.392C361.961 310.773 357.84 315 353.049 315ZM338.482 276.953L340.207 305.296C340.494 309.908 343.944 313.559 347.969 313.559H352.953C357.074 313.559 360.523 309.908 360.715 305.296L362.44 276.953H338.482Z" fill="#231F20"/>
<path d="M2.77915 130.723H0.670828C0.287496 130.723 0 130.434 0 130.05C0 129.666 0.287496 129.377 0.670828 129.377H2.77915C3.16249 129.377 3.44999 129.666 3.44999 130.05C3.54582 130.434 3.16249 130.723 2.77915 130.723Z" fill="#D1D3D4"/>
<path d="M309.54 130.723H305.324C304.94 130.723 304.653 130.434 304.653 130.05C304.653 129.666 304.94 129.377 305.324 129.377H309.445C309.828 129.377 310.115 129.666 310.115 130.05C310.211 130.434 309.828 130.723 309.54 130.723ZM301.203 130.723H297.082C296.699 130.723 296.411 130.434 296.411 130.05C296.411 129.666 296.699 129.377 297.082 129.377H301.203C301.586 129.377 301.874 129.666 301.874 130.05C301.874 130.434 301.586 130.723 301.203 130.723ZM292.961 130.723H288.84C288.457 130.723 288.17 130.434 288.17 130.05C288.17 129.666 288.457 129.377 288.84 129.377H292.961C293.345 129.377 293.632 129.666 293.632 130.05C293.632 130.434 293.345 130.723 292.961 130.723ZM284.624 130.723H280.503C280.12 130.723 279.832 130.434 279.832 130.05C279.832 129.666 280.12 129.377 280.503 129.377H284.624C285.007 129.377 285.295 129.666 285.295 130.05C285.295 130.434 285.007 130.723 284.624 130.723ZM276.382 130.723H272.261C271.878 130.723 271.591 130.434 271.591 130.05C271.591 129.666 271.878 129.377 272.261 129.377H276.382C276.766 129.377 277.053 129.666 277.053 130.05C277.053 130.434 276.766 130.723 276.382 130.723ZM268.045 130.723H263.924C263.541 130.723 263.253 130.434 263.253 130.05C263.253 129.666 263.541 129.377 263.924 129.377H268.045C268.428 129.377 268.716 129.666 268.716 130.05C268.716 130.434 268.428 130.723 268.045 130.723ZM259.803 130.723H255.682C255.299 130.723 255.011 130.434 255.011 130.05C255.011 129.666 255.299 129.377 255.682 129.377H259.803C260.186 129.377 260.474 129.666 260.474 130.05C260.474 130.434 260.186 130.723 259.803 130.723ZM251.466 130.723H247.345C246.962 130.723 246.674 130.434 246.674 130.05C246.674 129.666 246.962 129.377 247.345 129.377H251.466C251.849 129.377 252.136 129.666 252.136 130.05C252.136 130.434 251.849 130.723 251.466 130.723ZM243.224 130.723H239.103C238.72 130.723 238.432 130.434 238.432 130.05C238.432 129.666 238.72 129.377 239.103 129.377H243.224C243.607 129.377 243.895 129.666 243.895 130.05C243.895 130.434 243.607 130.723 243.224 130.723ZM234.887 130.723H230.766C230.382 130.723 230.095 130.434 230.095 130.05C230.095 129.666 230.382 129.377 230.766 129.377H234.887C235.27 129.377 235.557 129.666 235.557 130.05C235.557 130.434 235.27 130.723 234.887 130.723ZM226.645 130.723H222.524C222.141 130.723 221.853 130.434 221.853 130.05C221.853 129.666 222.141 129.377 222.524 129.377H226.645C227.028 129.377 227.316 129.666 227.316 130.05C227.316 130.434 227.028 130.723 226.645 130.723ZM218.307 130.723H214.187C213.803 130.723 213.516 130.434 213.516 130.05C213.516 129.666 213.803 129.377 214.187 129.377H218.307C218.691 129.377 218.978 129.666 218.978 130.05C218.978 130.434 218.691 130.723 218.307 130.723ZM210.066 130.723H205.945C205.562 130.723 205.274 130.434 205.274 130.05C205.274 129.666 205.562 129.377 205.945 129.377H210.066C210.449 129.377 210.737 129.666 210.737 130.05C210.737 130.434 210.449 130.723 210.066 130.723ZM201.728 130.723H197.608C197.224 130.723 196.937 130.434 196.937 130.05C196.937 129.666 197.224 129.377 197.608 129.377H201.728C202.112 129.377 202.399 129.666 202.399 130.05C202.495 130.434 202.112 130.723 201.728 130.723ZM193.487 130.723H189.366C188.983 130.723 188.695 130.434 188.695 130.05C188.695 129.666 188.983 129.377 189.366 129.377H193.487C193.87 129.377 194.158 129.666 194.158 130.05C194.158 130.434 193.87 130.723 193.487 130.723ZM185.149 130.723H181.028C180.645 130.723 180.358 130.434 180.358 130.05C180.358 129.666 180.645 129.377 181.028 129.377H185.149C185.533 129.377 185.82 129.666 185.82 130.05C185.916 130.434 185.533 130.723 185.149 130.723ZM176.908 130.723H172.787C172.403 130.723 172.116 130.434 172.116 130.05C172.116 129.666 172.403 129.377 172.787 129.377H177.003C177.387 129.377 177.674 129.666 177.674 130.05C177.578 130.434 177.291 130.723 176.908 130.723ZM168.57 130.723H164.449C164.066 130.723 163.779 130.434 163.779 130.05C163.779 129.666 164.066 129.377 164.449 129.377H168.57C168.953 129.377 169.241 129.666 169.241 130.05C169.337 130.434 168.953 130.723 168.57 130.723ZM160.329 130.723H156.208C155.824 130.723 155.537 130.434 155.537 130.05C155.537 129.666 155.824 129.377 156.208 129.377H160.329C160.712 129.377 160.999 129.666 160.999 130.05C160.999 130.434 160.712 130.723 160.329 130.723ZM151.991 130.723H147.87C147.487 130.723 147.199 130.434 147.199 130.05C147.199 129.666 147.487 129.377 147.87 129.377H151.991C152.374 129.377 152.662 129.666 152.662 130.05C152.662 130.434 152.374 130.723 151.991 130.723ZM143.749 130.723H139.629C139.245 130.723 138.958 130.434 138.958 130.05C138.958 129.666 139.245 129.377 139.629 129.377H143.749C144.133 129.377 144.42 129.666 144.42 130.05C144.42 130.434 144.133 130.723 143.749 130.723ZM135.412 130.723H131.291C130.908 130.723 130.62 130.434 130.62 130.05C130.62 129.666 130.908 129.377 131.291 129.377H135.412C135.795 129.377 136.083 129.666 136.083 130.05C136.179 130.434 135.795 130.723 135.412 130.723ZM127.17 130.723H123.049C122.666 130.723 122.379 130.434 122.379 130.05C122.379 129.666 122.666 129.377 123.049 129.377H127.17C127.554 129.377 127.841 129.666 127.841 130.05C127.841 130.434 127.554 130.723 127.17 130.723ZM118.833 130.723H114.712C114.329 130.723 114.041 130.434 114.041 130.05C114.041 129.666 114.329 129.377 114.712 129.377H118.833C119.216 129.377 119.504 129.666 119.504 130.05C119.6 130.434 119.216 130.723 118.833 130.723ZM110.591 130.723H106.47C106.087 130.723 105.8 130.434 105.8 130.05C105.8 129.666 106.087 129.377 106.47 129.377H110.591C110.975 129.377 111.262 129.666 111.262 130.05C111.262 130.434 110.975 130.723 110.591 130.723ZM102.254 130.723H98.1329C97.7496 130.723 97.4621 130.434 97.4621 130.05C97.4621 129.666 97.7496 129.377 98.1329 129.377H102.254C102.637 129.377 102.925 129.666 102.925 130.05C103.02 130.434 102.637 130.723 102.254 130.723ZM94.0121 130.723H89.8913C89.508 130.723 89.2205 130.434 89.2205 130.05C89.2205 129.666 89.508 129.377 89.8913 129.377H94.0121C94.3954 129.377 94.6829 129.666 94.6829 130.05C94.6829 130.434 94.3954 130.723 94.0121 130.723ZM85.6746 130.723H81.5538C81.1705 130.723 80.883 130.434 80.883 130.05C80.883 129.666 81.1705 129.377 81.5538 129.377H85.6746C86.058 129.377 86.3455 129.666 86.3455 130.05C86.4413 130.434 86.058 130.723 85.6746 130.723ZM77.433 130.723H73.3122C72.9288 130.723 72.6414 130.434 72.6414 130.05C72.6414 129.666 72.9288 129.377 73.3122 129.377H77.433C77.8163 129.377 78.1038 129.666 78.1038 130.05C78.1038 130.434 77.8163 130.723 77.433 130.723ZM69.0955 130.723H64.9747C64.5914 130.723 64.3039 130.434 64.3039 130.05C64.3039 129.666 64.5914 129.377 64.9747 129.377H69.0955C69.4789 129.377 69.7664 129.666 69.7664 130.05C69.8622 130.434 69.4789 130.723 69.0955 130.723ZM60.8539 130.723H56.7331C56.3498 130.723 56.0623 130.434 56.0623 130.05C56.0623 129.666 56.3498 129.377 56.7331 129.377H60.8539C61.2372 129.377 61.5247 129.666 61.5247 130.05C61.5247 130.434 61.2372 130.723 60.8539 130.723ZM52.5164 130.723H48.3956C48.0123 130.723 47.7248 130.434 47.7248 130.05C47.7248 129.666 48.0123 129.377 48.3956 129.377H52.5164C52.8998 129.377 53.1873 129.666 53.1873 130.05C53.2831 130.434 52.8998 130.723 52.5164 130.723ZM44.2748 130.723H40.154C39.7707 130.723 39.4832 130.434 39.4832 130.05C39.4832 129.666 39.7707 129.377 40.154 129.377H44.2748C44.6581 129.377 44.9456 129.666 44.9456 130.05C44.9456 130.434 44.6581 130.723 44.2748 130.723ZM35.9373 130.723H31.8165C31.4332 130.723 31.1457 130.434 31.1457 130.05C31.1457 129.666 31.4332 129.377 31.8165 129.377H35.9373C36.3207 129.377 36.6082 129.666 36.6082 130.05C36.704 130.434 36.3207 130.723 35.9373 130.723ZM27.6957 130.723H23.5749C23.1916 130.723 22.9041 130.434 22.9041 130.05C22.9041 129.666 23.1916 129.377 23.5749 129.377H27.6957C28.079 129.377 28.3665 129.666 28.3665 130.05C28.4624 130.434 28.079 130.723 27.6957 130.723ZM19.3582 130.723H15.2374C14.8541 130.723 14.5666 130.434 14.5666 130.05C14.5666 129.666 14.8541 129.377 15.2374 129.377H19.3582C19.7416 129.377 20.0291 129.666 20.0291 130.05C20.1249 130.434 19.7416 130.723 19.3582 130.723ZM11.1166 130.723H6.99578C6.61245 130.723 6.32495 130.434 6.32495 130.05C6.32495 129.666 6.61245 129.377 6.99578 129.377H11.1166C11.4999 129.377 11.7874 129.666 11.7874 130.05C11.7874 130.434 11.4999 130.723 11.1166 130.723Z" fill="#D1D3D4"/>
<path d="M315.77 130.723H313.661C313.278 130.723 312.99 130.434 312.99 130.05C312.99 129.666 313.278 129.377 313.661 129.377H315.77C316.153 129.377 316.44 129.666 316.44 130.05C316.44 130.434 316.153 130.723 315.77 130.723Z" fill="#D1D3D4"/>
<path d="M0.766602 313.943L100.72 217.577L172.02 223.822L217.828 188.561L188.312 154.069L326.407 132.26L266.511 253.991L240.924 222.669L172.499 265.52L100.241 255.816L0.766602 313.943Z" fill="#99BC85"/>
<path d="M100.529 314.712C100.145 314.712 99.8579 314.424 99.8579 314.039V309.812C99.8579 309.428 100.145 309.139 100.529 309.139C100.912 309.139 101.2 309.428 101.2 309.812V314.039C101.2 314.327 100.912 314.712 100.529 314.712ZM100.529 306.257C100.145 306.257 99.8579 305.969 99.8579 305.584V301.357C99.8579 300.973 100.145 300.684 100.529 300.684C100.912 300.684 101.2 300.973 101.2 301.357V305.584C101.2 305.969 100.912 306.257 100.529 306.257ZM100.529 297.898C100.145 297.898 99.8579 297.61 99.8579 297.226V292.902C99.8579 292.518 100.145 292.23 100.529 292.23C100.912 292.23 101.2 292.518 101.2 292.902V297.13C101.2 297.514 100.912 297.898 100.529 297.898ZM100.529 289.443C100.145 289.443 99.8579 289.155 99.8579 288.771V284.543C99.8579 284.159 100.145 283.871 100.529 283.871C100.912 283.871 101.2 284.159 101.2 284.543V288.771C101.2 289.155 100.912 289.443 100.529 289.443ZM100.529 280.988C100.145 280.988 99.8579 280.7 99.8579 280.316V276.088C99.8579 275.704 100.145 275.416 100.529 275.416C100.912 275.416 101.2 275.704 101.2 276.088V280.316C101.2 280.7 100.912 280.988 100.529 280.988Z" fill="#D1D3D4"/>
<path d="M172.212 314.616C171.829 314.616 171.541 314.328 171.541 313.943C171.541 313.559 171.829 313.271 172.212 313.271C172.595 313.271 172.883 313.559 172.883 313.943C172.979 314.231 172.691 314.616 172.212 314.616ZM172.212 310.388C171.829 310.388 171.541 310.1 171.541 309.716V305.488C171.541 305.104 171.829 304.816 172.212 304.816C172.595 304.816 172.883 305.104 172.883 305.488V309.716C172.979 310.1 172.595 310.388 172.212 310.388ZM172.212 301.934C171.829 301.934 171.541 301.645 171.541 301.261V297.034C171.541 296.649 171.829 296.361 172.212 296.361C172.595 296.361 172.883 296.649 172.883 297.034V301.261C172.979 301.645 172.595 301.934 172.212 301.934ZM172.212 293.575C171.829 293.575 171.541 293.287 171.541 292.902V288.675C171.541 288.29 171.829 288.002 172.212 288.002C172.595 288.002 172.883 288.29 172.883 288.675V292.902C172.979 293.19 172.595 293.575 172.212 293.575ZM172.212 285.12C171.829 285.12 171.541 284.832 171.541 284.447V280.22C171.541 279.836 171.829 279.547 172.212 279.547C172.595 279.547 172.883 279.836 172.883 280.22V284.447C172.979 284.832 172.595 285.12 172.212 285.12Z" fill="#D1D3D4"/>
<path d="M243.991 314.616C243.607 314.616 243.32 314.328 243.32 313.943V312.598C243.32 312.214 243.607 311.926 243.991 311.926C244.374 311.926 244.662 312.214 244.662 312.598V313.943C244.662 314.328 244.374 314.616 243.991 314.616ZM243.991 309.043C243.607 309.043 243.32 308.755 243.32 308.371V304.143C243.32 303.759 243.607 303.471 243.991 303.471C244.374 303.471 244.662 303.759 244.662 304.143V308.371C244.662 308.755 244.374 309.043 243.991 309.043ZM243.991 300.685C243.607 300.685 243.32 300.396 243.32 300.012V295.785C243.32 295.4 243.607 295.112 243.991 295.112C244.374 295.112 244.662 295.4 244.662 295.785V300.012C244.662 300.396 244.374 300.685 243.991 300.685ZM243.991 292.23C243.607 292.23 243.32 291.941 243.32 291.557V287.33C243.32 286.945 243.607 286.657 243.991 286.657C244.374 286.657 244.662 286.945 244.662 287.33V291.557C244.662 291.941 244.374 292.23 243.991 292.23ZM243.991 283.775C243.607 283.775 243.32 283.487 243.32 283.102V278.875C243.32 278.49 243.607 278.202 243.991 278.202C244.374 278.202 244.662 278.49 244.662 278.875V283.102C244.662 283.487 244.374 283.775 243.991 283.775ZM243.991 275.416C243.607 275.416 243.32 275.128 243.32 274.743V270.516C243.32 270.132 243.607 269.843 243.991 269.843C244.374 269.843 244.662 270.132 244.662 270.516V274.743C244.662 275.128 244.374 275.416 243.991 275.416ZM243.991 266.961C243.607 266.961 243.32 266.673 243.32 266.289V262.061C243.32 261.677 243.607 261.389 243.991 261.389C244.374 261.389 244.662 261.677 244.662 262.061V266.289C244.662 266.673 244.374 266.961 243.991 266.961ZM243.991 258.602C243.607 258.602 243.32 258.314 243.32 257.93V253.702C243.32 253.318 243.607 253.03 243.991 253.03C244.374 253.03 244.662 253.318 244.662 253.702V257.93C244.662 258.218 244.374 258.602 243.991 258.602ZM243.991 250.148C243.607 250.148 243.32 249.859 243.32 249.475V245.248C243.32 244.863 243.607 244.575 243.991 244.575C244.374 244.575 244.662 244.863 244.662 245.248V249.475C244.662 249.859 244.374 250.148 243.991 250.148ZM243.991 241.693C243.607 241.693 243.32 241.404 243.32 241.02V236.793C243.32 236.408 243.607 236.12 243.991 236.12C244.374 236.12 244.662 236.408 244.662 236.793V241.02C244.662 241.404 244.374 241.693 243.991 241.693Z" fill="#D1D3D4"/>
<path d="M315.77 314.616C315.386 314.616 315.099 314.328 315.099 313.943V311.733C315.099 311.349 315.386 311.061 315.77 311.061C316.153 311.061 316.441 311.349 316.441 311.733V313.943C316.441 314.328 316.153 314.616 315.77 314.616ZM315.77 308.179C315.386 308.179 315.099 307.89 315.099 307.506V303.279C315.099 302.894 315.386 302.606 315.77 302.606C316.153 302.606 316.441 302.894 316.441 303.279V307.506C316.441 307.89 316.153 308.179 315.77 308.179ZM315.77 299.724C315.386 299.724 315.099 299.435 315.099 299.051V294.824C315.099 294.439 315.386 294.151 315.77 294.151C316.153 294.151 316.441 294.439 316.441 294.824V299.051C316.441 299.435 316.153 299.724 315.77 299.724ZM315.77 291.365C315.386 291.365 315.099 291.077 315.099 290.692V286.465C315.099 286.081 315.386 285.792 315.77 285.792C316.153 285.792 316.441 286.081 316.441 286.465V290.692C316.441 290.981 316.153 291.365 315.77 291.365ZM315.77 282.91C315.386 282.91 315.099 282.622 315.099 282.237V278.01C315.099 277.626 315.386 277.338 315.77 277.338C316.153 277.338 316.441 277.626 316.441 278.01V282.237C316.441 282.622 316.153 282.91 315.77 282.91ZM315.77 274.455C315.386 274.455 315.099 274.167 315.099 273.783V269.555C315.099 269.171 315.386 268.883 315.77 268.883C316.153 268.883 316.441 269.171 316.441 269.555V273.783C316.441 274.167 316.153 274.455 315.77 274.455C315.77 274.551 315.77 274.551 315.77 274.455ZM315.77 266.096C315.386 266.096 315.099 265.808 315.099 265.424V261.196C315.099 260.812 315.386 260.524 315.77 260.524C316.153 260.524 316.441 260.812 316.441 261.196V265.424C316.441 265.808 316.153 266.096 315.77 266.096ZM315.77 257.642C315.386 257.642 315.099 257.353 315.099 256.969V252.742C315.099 252.357 315.386 252.069 315.77 252.069C316.153 252.069 316.441 252.357 316.441 252.742V256.969C316.441 257.353 316.153 257.642 315.77 257.642ZM315.77 249.283C315.386 249.283 315.099 248.995 315.099 248.61V244.383C315.099 243.998 315.386 243.71 315.77 243.71C316.153 243.71 316.441 243.998 316.441 244.383V248.61C316.441 248.995 316.153 249.283 315.77 249.283ZM315.77 240.828C315.386 240.828 315.099 240.54 315.099 240.155V235.928C315.099 235.544 315.386 235.255 315.77 235.255C316.153 235.255 316.441 235.544 316.441 235.928V240.155C316.441 240.54 316.153 240.828 315.77 240.828ZM315.77 232.469C315.386 232.469 315.099 232.181 315.099 231.797V227.569C315.099 227.185 315.386 226.897 315.77 226.897C316.153 226.897 316.441 227.185 316.441 227.569V231.797C316.441 232.181 316.153 232.469 315.77 232.469ZM315.77 224.014C315.386 224.014 315.099 223.726 315.099 223.342V219.114C315.099 218.73 315.386 218.442 315.77 218.442C316.153 218.442 316.441 218.73 316.441 219.114V223.342C316.441 223.726 316.153 224.014 315.77 224.014ZM315.77 215.559C315.386 215.559 315.099 215.271 315.099 214.887V210.659C315.099 210.275 315.386 209.987 315.77 209.987C316.153 209.987 316.441 210.275 316.441 210.659V214.887C316.441 215.271 316.153 215.559 315.77 215.559ZM315.77 207.201C315.386 207.201 315.099 206.912 315.099 206.528V202.301C315.099 201.916 315.386 201.628 315.77 201.628C316.153 201.628 316.441 201.916 316.441 202.301V206.528C316.441 206.912 316.153 207.201 315.77 207.201ZM315.77 198.746C315.386 198.746 315.099 198.458 315.099 198.073V193.846C315.099 193.461 315.386 193.173 315.77 193.173C316.153 193.173 316.441 193.461 316.441 193.846V198.073C316.441 198.458 316.153 198.746 315.77 198.746ZM315.77 190.387C315.386 190.387 315.099 190.099 315.099 189.714V185.487C315.099 185.103 315.386 184.814 315.77 184.814C316.153 184.814 316.441 185.103 316.441 185.487V189.714C316.441 190.003 316.153 190.387 315.77 190.387Z" fill="#D1D3D4"/>
<path d="M189.941 186.16H185.724C185.341 186.16 185.053 185.871 185.053 185.487C185.053 185.103 185.341 184.814 185.724 184.814H189.941C190.324 184.814 190.612 185.103 190.612 185.487C190.612 185.871 190.324 186.16 189.941 186.16ZM181.508 186.16H177.291C176.908 186.16 176.62 185.871 176.62 185.487C176.62 185.103 176.908 184.814 177.291 184.814H181.508C181.891 184.814 182.178 185.103 182.178 185.487C182.274 185.871 181.891 186.16 181.508 186.16ZM173.17 186.16H168.953C168.57 186.16 168.283 185.871 168.283 185.487C168.283 185.103 168.57 184.814 168.953 184.814H173.17C173.553 184.814 173.841 185.103 173.841 185.487C173.841 185.871 173.553 186.16 173.17 186.16ZM164.737 186.16H160.52C160.137 186.16 159.849 185.871 159.849 185.487C159.849 185.103 160.137 184.814 160.52 184.814H164.737C165.12 184.814 165.408 185.103 165.408 185.487C165.408 185.871 165.12 186.16 164.737 186.16ZM156.399 186.16H152.183C151.799 186.16 151.512 185.871 151.512 185.487C151.512 185.103 151.799 184.814 152.183 184.814H156.399C156.783 184.814 157.07 185.103 157.07 185.487C157.07 185.871 156.783 186.16 156.399 186.16ZM147.966 186.16H143.749C143.366 186.16 143.079 185.871 143.079 185.487C143.079 185.103 143.366 184.814 143.749 184.814H147.966C148.349 184.814 148.637 185.103 148.637 185.487C148.637 185.871 148.349 186.16 147.966 186.16ZM139.533 186.16H135.316C134.933 186.16 134.645 185.871 134.645 185.487C134.645 185.103 134.933 184.814 135.316 184.814H139.437C139.82 184.814 140.108 185.103 140.108 185.487C140.204 185.871 139.916 186.16 139.533 186.16ZM131.195 186.16H126.979C126.595 186.16 126.308 185.871 126.308 185.487C126.308 185.103 126.595 184.814 126.979 184.814H131.195C131.579 184.814 131.866 185.103 131.866 185.487C131.866 185.871 131.579 186.16 131.195 186.16ZM122.762 186.16H118.545C118.162 186.16 117.874 185.871 117.874 185.487C117.874 185.103 118.162 184.814 118.545 184.814H122.762C123.145 184.814 123.433 185.103 123.433 185.487C123.529 185.871 123.145 186.16 122.762 186.16ZM114.425 186.16H110.208C109.825 186.16 109.537 185.871 109.537 185.487C109.537 185.103 109.825 184.814 110.208 184.814H114.425C114.808 184.814 115.095 185.103 115.095 185.487C115.095 185.871 114.808 186.16 114.425 186.16ZM105.991 186.16H101.775C101.391 186.16 101.104 185.871 101.104 185.487C101.104 185.103 101.391 184.814 101.775 184.814H105.991C106.375 184.814 106.662 185.103 106.662 185.487C106.662 185.871 106.375 186.16 105.991 186.16ZM97.6537 186.16H93.4371C93.0538 186.16 92.7663 185.871 92.7663 185.487C92.7663 185.103 93.0538 184.814 93.4371 184.814H97.6537C98.0371 184.814 98.3246 185.103 98.3246 185.487C98.3246 185.871 98.0371 186.16 97.6537 186.16ZM89.2204 186.16H85.0038C84.6205 186.16 84.333 185.871 84.333 185.487C84.333 185.103 84.6205 184.814 85.0038 184.814H89.2204C89.6038 184.814 89.8913 185.103 89.8913 185.487C89.8913 185.871 89.6038 186.16 89.2204 186.16ZM80.7871 186.16H76.5705C76.1872 186.16 75.8997 185.871 75.8997 185.487C75.8997 185.103 76.1872 184.814 76.5705 184.814H80.7871C81.1705 184.814 81.458 185.103 81.458 185.487C81.5538 185.871 81.1705 186.16 80.7871 186.16ZM72.4497 186.16H68.233C67.8497 186.16 67.5622 185.871 67.5622 185.487C67.5622 185.103 67.8497 184.814 68.233 184.814H72.4497C72.833 184.814 73.1205 185.103 73.1205 185.487C73.1205 185.871 72.833 186.16 72.4497 186.16ZM64.0164 186.16H59.7997C59.4164 186.16 59.1289 185.871 59.1289 185.487C59.1289 185.103 59.4164 184.814 59.7997 184.814H64.0164C64.3997 184.814 64.6872 185.103 64.6872 185.487C64.6872 185.871 64.3997 186.16 64.0164 186.16ZM55.6789 186.16H51.4623C51.0789 186.16 50.7914 185.871 50.7914 185.487C50.7914 185.103 51.0789 184.814 51.4623 184.814H55.6789C56.0622 184.814 56.3497 185.103 56.3497 185.487C56.3497 185.871 56.0622 186.16 55.6789 186.16ZM47.2456 186.16H43.029C42.6456 186.16 42.3581 185.871 42.3581 185.487C42.3581 185.103 42.6456 184.814 43.029 184.814H47.2456C47.6289 184.814 47.9164 185.103 47.9164 185.487C47.9164 185.871 47.6289 186.16 47.2456 186.16ZM38.9081 186.16H34.6915C34.3082 186.16 34.0207 185.871 34.0207 185.487C34.0207 185.103 34.3082 184.814 34.6915 184.814H38.9081C39.2915 184.814 39.579 185.103 39.579 185.487C39.579 185.871 39.2915 186.16 38.9081 186.16ZM30.4748 186.16H26.2582C25.8749 186.16 25.5874 185.871 25.5874 185.487C25.5874 185.103 25.8749 184.814 26.2582 184.814H30.4748C30.8582 184.814 31.1457 185.103 31.1457 185.487C31.1457 185.871 30.8582 186.16 30.4748 186.16ZM22.0415 186.16H17.8249C17.4416 186.16 17.1541 185.871 17.1541 185.487C17.1541 185.103 17.4416 184.814 17.8249 184.814H22.0415C22.4249 184.814 22.7124 185.103 22.7124 185.487C22.8082 185.871 22.4249 186.16 22.0415 186.16ZM13.7041 186.16H9.48743C9.1041 186.16 8.8166 185.871 8.8166 185.487C8.8166 185.103 9.1041 184.814 9.48743 184.814H13.7041C14.0874 184.814 14.3749 185.103 14.3749 185.487C14.3749 185.871 14.0874 186.16 13.7041 186.16ZM5.27078 186.16H1.05413C0.6708 186.16 0.383301 185.871 0.383301 185.487C0.383301 185.103 0.6708 184.814 1.05413 184.814H5.27078C5.65412 184.814 5.94161 185.103 5.94161 185.487C6.03744 185.871 5.65412 186.16 5.27078 186.16Z" fill="#D1D3D4"/>
<path d="M368.574 314.52H0.766779C0.383447 314.52 0.0959473 314.231 0.0959473 313.847V68.5601C0.0959473 68.1758 0.383445 67.8876 0.670944 67.8876C1.05428 67.8876 1.34177 68.1758 1.34177 68.464V313.175H368.574C368.957 313.175 369.245 313.367 369.245 313.751C369.245 314.135 369.053 314.424 368.669 314.424C368.669 314.52 368.669 314.52 368.574 314.52Z" fill="#231F20"/>
<path d="M66.5081 233.238H63.5373C63.1539 233.238 62.8665 232.949 62.8665 232.565C62.8665 232.181 63.1539 231.893 63.5373 231.893H66.5081C66.8914 231.893 67.1789 232.181 67.1789 232.565C67.2748 232.949 66.8914 233.238 66.5081 233.238ZM59.4165 233.238H55.1998C54.8165 233.238 54.529 232.949 54.529 232.565C54.529 232.181 54.8165 231.893 55.1998 231.893H59.4165C59.7998 231.893 60.0873 232.181 60.0873 232.565C60.0873 232.949 59.7998 233.238 59.4165 233.238ZM50.9832 233.238H46.7665C46.3832 233.238 46.0957 232.949 46.0957 232.565C46.0957 232.181 46.3832 231.893 46.7665 231.893H50.9832C51.3665 231.893 51.654 232.181 51.654 232.565C51.654 232.949 51.3665 233.238 50.9832 233.238ZM42.5499 233.238H38.3332C37.9499 233.238 37.6624 232.949 37.6624 232.565C37.6624 232.181 37.9499 231.893 38.3332 231.893H42.5499C42.9332 231.893 43.2207 232.181 43.2207 232.565C43.3165 232.949 43.029 233.238 42.5499 233.238C42.6457 233.238 42.6457 233.238 42.5499 233.238ZM34.2124 233.238H29.9957C29.6124 233.238 29.3249 232.949 29.3249 232.565C29.3249 232.181 29.6124 231.893 29.9957 231.893H34.2124C34.5957 231.893 34.8832 232.181 34.8832 232.565C34.8832 232.949 34.5957 233.238 34.2124 233.238ZM25.7791 233.238H21.6583C21.2749 233.238 20.9875 232.949 20.9875 232.565C20.9875 232.181 21.2749 231.893 21.6583 231.893H25.8749C26.2583 231.893 26.5458 232.181 26.5458 232.565C26.5458 232.949 26.2583 233.238 25.7791 233.238ZM17.4416 233.238H13.225C12.8416 233.238 12.5541 232.949 12.5541 232.565C12.5541 232.181 12.8416 231.893 13.225 231.893H17.4416C17.825 231.893 18.1125 232.181 18.1125 232.565C18.1125 232.949 17.825 233.238 17.4416 233.238ZM9.00833 233.238H4.79168C4.40835 233.238 4.12085 232.949 4.12085 232.565C4.12085 232.181 4.40835 231.893 4.79168 231.893H9.00833C9.39166 231.893 9.67916 232.181 9.67916 232.565C9.67916 232.949 9.39166 233.238 9.00833 233.238Z" fill="#D1D3D4"/>
<path d="M174.32 165.503C174.128 165.503 173.937 165.407 173.841 165.311C172.691 164.061 171.157 163.389 169.432 163.389C169.145 163.389 168.953 163.293 168.857 163.005C168.762 162.812 168.762 162.524 168.953 162.332L177.962 151.091C178.153 150.803 178.537 150.803 178.824 150.995C178.92 151.091 179.016 151.187 179.016 151.379C179.974 151.764 180.932 151.86 181.986 151.764C182.274 151.764 182.466 151.86 182.657 152.052C182.753 152.244 182.753 152.532 182.657 152.724L174.799 165.214C174.703 165.311 174.607 165.407 174.32 165.503ZM170.774 162.236C172.02 162.428 173.266 163.005 174.224 163.869L181.028 153.109C180.166 153.109 179.399 152.916 178.632 152.532L170.774 162.236Z" fill="#231F20"/>
<path d="M81.5536 165.791C81.4578 165.791 81.2661 165.791 81.1703 165.695C80.9786 165.599 80.8828 165.407 80.8828 165.214V162.044C80.8828 161.852 80.9786 161.66 81.0745 161.563C85.0995 158.009 92.9578 157.528 93.2453 157.528C93.4369 157.528 93.6286 157.624 93.7244 157.72C93.8203 157.816 93.9161 158.009 93.9161 158.201V163.389C93.9161 163.581 93.8203 163.773 93.7244 163.869C93.6286 163.965 93.4369 164.061 93.2453 164.061C87.9744 163.293 81.8411 165.791 81.7453 165.887C81.7453 165.791 81.6495 165.791 81.5536 165.791ZM82.2245 162.332V164.254C85.5786 163.005 89.2203 162.428 92.7661 162.62V158.873C90.8494 159.065 85.387 159.834 82.2245 162.332Z" fill="#231F20"/>
<path d="M110.975 99.2088H110.879C104.841 97.8638 101.679 90.1775 101.487 89.8893C101.391 89.6011 101.487 89.4089 101.679 89.2167L105.895 85.2775C106.183 85.0854 106.566 85.0854 106.758 85.2775C106.854 85.3736 106.854 85.4697 106.95 85.5658C107.908 89.6971 113.179 92.4834 114.233 93.0599C114.425 93.1559 114.52 93.252 114.616 93.4442C114.712 93.6363 114.616 93.8285 114.52 93.9246L111.645 98.9206C111.454 99.1128 111.262 99.2088 110.975 99.2088ZM102.829 89.7932C103.5 91.3305 106.279 96.5187 110.687 97.8638L112.987 93.8285C111.166 92.7716 107.333 90.3697 105.991 86.8148L102.829 89.7932Z" fill="#231F20"/>
<path d="M48.2038 219.787C42.4538 219.787 39.3872 212.197 39.1955 211.908C39.0997 211.716 39.0997 211.428 39.2913 211.236L42.1663 207.681C42.358 207.489 42.5497 207.393 42.8372 207.489C43.1247 207.585 43.2205 207.777 43.3163 208.065C43.7955 212.004 47.1497 213.157 49.3538 213.83C50.408 214.214 51.0788 214.406 51.3663 214.983C51.4621 215.175 51.4621 215.367 51.3663 215.559L48.9705 219.498C48.8746 219.691 48.683 219.787 48.4913 219.787H48.2038ZM40.5372 211.716C41.208 213.157 43.8913 218.442 48.108 218.442L50.0246 215.271C49.7371 215.175 49.3538 215.079 49.0663 214.887C47.0538 214.214 43.6038 213.061 42.4538 209.41L40.5372 211.716Z" fill="#231F20"/>
<path d="M133.399 209.218C133.208 209.218 133.016 209.122 132.92 209.026L130.812 206.336C130.716 206.144 130.62 205.952 130.716 205.759C131.578 203.261 136.562 199.706 137.041 199.322C137.233 199.226 137.424 199.13 137.616 199.226C137.808 199.226 137.999 199.418 137.999 199.61L139.341 202.781C139.437 202.973 139.437 203.165 139.341 203.261C139.245 203.454 139.149 203.55 138.958 203.646C136.274 204.606 133.974 208.93 133.974 208.93C133.878 209.026 133.687 209.218 133.399 209.218ZM131.962 205.759L133.303 207.393C134.07 206.144 135.795 203.646 137.903 202.589L137.137 200.667C135.508 201.916 132.728 204.222 131.962 205.759Z" fill="#231F20"/>
<path d="M328.132 17.7348C327.749 17.7348 327.461 17.4466 327.461 17.0623C327.461 16.7741 327.653 16.4858 327.94 16.3897C333.499 14.4682 339.632 11.6819 340.207 10.529C339.153 9.47214 335.607 10.1447 333.595 10.8172C333.307 10.9133 332.924 10.8172 332.732 10.4329C332.54 10.1447 332.636 9.76037 332.924 9.56822C336.278 7.16627 340.974 2.93884 340.207 1.30551C339.153 0.632968 331.582 5.24471 323.724 11.3937C323.436 11.6819 322.957 11.6819 322.765 11.3937C322.478 11.1055 322.478 10.6251 322.765 10.4329L322.861 10.3368C325.257 8.51136 337.236 -0.808205 340.495 0.0564969C340.878 0.152575 341.261 0.440812 341.453 0.825123C342.507 3.13099 339.057 6.5898 336.278 8.7996C338.099 8.51136 340.111 8.60744 341.165 9.76038C341.453 10.0486 341.549 10.529 341.453 10.9133C340.878 13.2192 331.199 16.7741 328.228 17.8309C328.228 17.7348 328.132 17.7348 328.132 17.7348Z" fill="#231F20"/>
<path d="M180.07 83.4522C179.974 83.4522 179.783 83.4522 179.687 83.3561C179.399 83.26 179.208 82.9718 179.208 82.6836C179.112 81.7228 180.07 80.1855 181.029 78.9365C177.004 79.6091 170.774 80.4738 169.529 79.513C169.049 79.1287 168.762 78.4561 168.954 77.8797C169.241 76.0542 172.02 73.8444 174.033 73.2679C176.524 72.5954 190.133 69.1366 190.708 68.9444C191.091 68.8483 191.474 69.0405 191.57 69.4248C191.666 69.8091 191.474 70.1934 191.091 70.2895C190.995 70.2895 176.908 73.8444 174.416 74.613C172.595 75.1895 170.487 77.111 170.295 78.1679C170.295 78.3601 170.295 78.3601 170.391 78.4561C171.254 78.9365 177.483 78.264 182.754 77.2071C183.137 77.111 183.52 77.3993 183.616 77.7836C183.616 77.9757 183.616 78.264 183.424 78.36C182.466 79.4169 181.604 80.5698 180.933 81.8189C183.808 80.4738 186.683 79.0326 189.366 77.2071C189.654 77.015 190.133 77.111 190.324 77.3993C190.516 77.6875 190.42 78.1679 190.133 78.36C183.041 82.8757 180.837 83.4522 180.07 83.4522Z" fill="#231F20"/>
<path d="M281.078 90.1776C281.078 90.1776 309.157 111.987 309.924 118.713C310.691 125.438 305.995 158.393 305.995 158.393L287.116 161.467C287.116 161.467 293.249 123.901 291.428 122.46C289.607 121.019 269.291 106.991 269.291 106.991C269.291 106.991 264.116 135.526 260.953 142.732C258.653 147.824 240.158 169.826 240.158 169.826L223.003 167.232C223.003 167.232 238.816 139.37 240.637 133.605C242.458 127.84 243.703 97.0952 243.703 97.0952L281.078 90.1776Z" fill="#F1F1F1"/>
<path d="M240.157 170.595H240.062L222.907 168.001C222.716 168.001 222.524 167.809 222.428 167.616C222.332 167.424 222.332 167.136 222.428 166.944C222.62 166.656 238.241 139.081 240.062 133.413C241.882 127.744 243.128 97.3834 243.128 97.0952C243.128 96.8069 243.416 96.5187 243.703 96.4226L280.982 89.505C281.174 89.505 281.366 89.505 281.557 89.6011C282.707 90.4658 309.828 111.699 310.69 118.617C311.457 125.438 306.953 157.048 306.761 158.393C306.761 158.681 306.474 158.969 306.186 158.969L287.403 162.14C287.211 162.14 286.924 162.14 286.828 161.948C286.636 161.756 286.636 161.563 286.636 161.371C289.511 143.981 292.003 124.67 291.141 122.94C289.703 121.787 273.986 110.93 270.057 108.144C269.099 113.428 264.786 136.487 261.816 142.924C259.516 148.016 241.691 169.346 240.924 170.21C240.541 170.499 240.349 170.595 240.157 170.595ZM224.153 166.752L239.87 169.154C242.074 166.463 258.27 147.152 260.282 142.54C263.445 135.526 268.524 107.279 268.62 106.991C268.62 106.799 268.811 106.511 269.003 106.415C269.195 106.319 269.482 106.319 269.674 106.511C270.536 107.087 289.991 120.634 291.811 121.979C293.632 123.324 290.278 146.383 287.882 160.699L305.324 157.816C305.899 153.685 309.828 125.054 309.157 118.905C308.582 113.621 288.745 97.1912 280.886 90.9462L244.47 97.7677C244.278 102.091 243.032 128.513 241.403 133.893C239.678 139.081 226.932 161.852 224.153 166.752Z" fill="#231F20"/>
<path d="M281.078 90.1776L243.799 97.0952L253.095 41.9464C253.095 41.9464 271.782 41.2739 275.136 43.1954C278.491 45.117 281.078 90.1776 281.078 90.1776Z" fill="#F1F1F1"/>
<path d="M243.799 97.8639C243.608 97.8639 243.416 97.7678 243.32 97.6718C243.128 97.4796 243.128 97.2874 243.128 97.0953L252.424 41.9465C252.52 41.6583 252.712 41.3701 253.095 41.3701C255.012 41.274 272.166 40.6975 275.52 42.7152C276.382 43.1956 279.353 48.0955 281.749 90.2738C281.749 90.6581 281.557 90.9463 281.174 91.0424L243.991 97.8639H243.799ZM253.67 42.7152L244.662 96.3267L280.312 89.6973C279.066 68.0797 276.67 45.2132 274.753 43.8681C272.262 42.3309 259.228 42.4269 253.67 42.7152Z" fill="#231F20"/>
<path d="M260.857 37.3347C260.282 37.623 260.857 45.7896 260.857 46.5582C260.857 53.3797 261.049 60.3934 260.857 67.1189C260.378 80.5698 250.699 93.6364 243.512 104.205C242.553 105.646 241.499 107.087 239.87 107.664C238.624 107.952 237.378 107.856 236.228 107.472C231.149 106.223 226.453 103.917 222.333 100.746C221.758 100.362 221.278 99.7854 220.991 99.2089C220.608 98.1521 221.278 97.0952 221.853 96.1344C229.328 83.9325 234.983 70.6738 238.624 56.8385C241.595 45.7896 251.274 41.9465 260.857 37.3347Z" fill="#99BC85"/>
<path d="M285.199 32.2426C285.391 32.2426 286.349 55.5895 286.349 56.5503C286.924 63.6601 283.953 78.8404 280.503 84.8933C280.695 77.2071 276.766 67.311 273.411 60.4895C271.782 57.2229 271.495 50.017 271.111 46.366C271.111 45.9817 270.153 38.0073 269.961 37.9112C269.961 37.9112 279.257 31.0897 285.199 32.2426Z" fill="#99BC85"/>
<path d="M265.937 47.1347H265.649C260.187 47.0387 258.557 43.4838 258.462 43.3877C258.462 43.2916 258.462 43.2916 258.462 43.1955L256.162 29.4564C256.162 29.2642 256.162 28.976 256.353 28.8799C256.353 28.8799 258.557 26.2858 256.066 19.2721C255.97 19.08 256.066 18.7917 256.162 18.5996C256.353 18.4074 256.545 18.3113 256.737 18.3113C256.832 18.3113 264.691 18.9839 271.495 16.5819C271.687 16.4859 271.878 16.4859 272.07 16.5819C272.262 16.678 272.357 16.8702 272.453 17.0623C272.549 17.4466 274.466 25.9976 274.657 29.9368C274.849 33.4917 271.687 35.4132 270.345 36.0858L271.687 42.8112C271.687 42.9073 271.687 42.9073 271.687 43.0034C271.782 43.0034 271.303 47.1347 265.937 47.1347ZM259.803 42.9073C259.995 43.3877 261.432 45.6936 265.649 45.7896C269.578 45.8857 270.249 43.5798 270.249 43.0995L268.812 35.8936C268.716 35.6054 268.907 35.2211 269.291 35.125C269.291 35.125 273.412 33.3956 273.22 30.1289C272.741 26.0937 272.07 22.1545 271.207 18.3113C266.799 19.5604 262.295 20.1368 257.695 19.9447C259.612 25.9015 258.174 28.7838 257.599 29.7446L259.803 42.9073Z" fill="#231F20"/>
<path d="M257.216 33.5877C256.928 33.5877 256.737 33.5877 256.449 33.4917C255.203 33.2995 254.149 32.627 253.383 31.5701C253.095 31.0897 252.808 30.5133 252.616 30.0329C252.424 29.4564 252.328 28.8799 252.328 28.3035C252.424 27.5348 252.903 26.8623 253.478 26.3819C253.766 26.1897 254.053 25.9976 254.341 25.8054C254.82 25.7094 255.299 25.6133 255.683 25.7094C256.449 25.8054 257.12 25.9976 257.791 26.2858C258.557 26.6701 259.133 27.3427 259.516 28.1113C259.708 28.3995 259.612 28.8799 259.324 29.0721C259.037 29.2642 258.557 29.1682 258.366 28.8799C258.366 28.8799 258.366 28.7838 258.27 28.7838C257.982 28.3035 257.599 27.9191 257.12 27.6309C256.641 27.4388 256.066 27.2466 255.491 27.2466C255.203 27.1505 255.012 27.1505 254.724 27.2466C254.533 27.3427 254.437 27.4388 254.341 27.5348C254.053 27.8231 253.766 28.2074 253.67 28.5917C253.67 28.976 253.766 29.3603 253.862 29.6485C254.053 30.1289 254.245 30.5133 254.437 30.8976C254.916 31.5701 255.683 32.0505 256.545 32.2426C257.408 32.3387 258.27 32.1466 258.941 31.6662C259.228 31.474 259.708 31.474 259.899 31.8583C260.091 32.2427 260.091 32.627 259.707 32.8191C259.132 33.2995 258.174 33.5877 257.216 33.5877Z" fill="#231F20"/>
<path d="M267.47 29.2642C267.086 29.2642 266.799 28.976 266.799 28.5916C266.799 28.2073 267.086 27.9191 267.47 27.9191C267.949 27.9191 268.524 27.823 269.003 27.5348C268.236 26.3819 267.278 25.2289 266.224 24.3642C265.936 24.076 265.936 23.6917 266.224 23.4034C266.511 23.1152 266.895 23.1152 267.182 23.4034C271.016 26.9583 270.536 27.823 270.345 28.2073C269.674 29.1681 267.853 29.2642 267.47 29.2642Z" fill="#231F20"/>
<path d="M269.482 35.7014C269.482 35.7014 265.649 36.374 263.732 35.7014C263.732 35.7014 266.032 39.7367 270.345 40.121L269.482 35.7014Z" fill="#231F20"/>
<path d="M270.345 40.8896C265.649 40.5053 263.253 36.2779 263.157 36.0858C263.062 35.7975 263.062 35.5093 263.253 35.3171C263.445 35.125 263.732 35.0289 264.02 35.125C265.457 35.7014 268.428 35.3171 269.387 35.125C269.77 35.0289 270.153 35.3171 270.153 35.7014L271.016 40.121C271.016 40.3132 271.016 40.6014 270.824 40.6975C270.728 40.7936 270.537 40.8896 270.345 40.8896ZM265.362 36.7583C266.416 38.0073 267.853 38.9681 269.482 39.3524L269.003 36.5661C267.757 36.7583 266.512 36.7583 265.362 36.7583Z" fill="#231F20"/>
<path d="M251.657 26.3819C251.37 26.3819 251.082 26.1897 250.987 25.9015C249.741 22.5388 250.412 18.6957 252.903 16.1015L252.999 16.0055C253.191 15.8133 253.287 15.7172 253.478 15.429C253.574 15.2368 253.574 15.1408 253.67 14.9486V14.7565C254.341 12.4506 255.97 10.6251 258.078 9.66432C260.091 8.70354 262.199 8.12707 264.403 8.031C266.128 7.74276 267.949 7.83884 269.578 8.22315C271.399 8.70354 273.028 9.95256 273.795 11.682C274.562 13.6035 273.891 15.8133 272.07 16.8702C271.782 17.0623 271.303 16.9662 271.112 16.5819C270.92 16.2937 271.016 15.8133 271.399 15.6212C271.399 15.6212 271.399 15.6212 271.495 15.6212C272.645 14.8525 273.124 13.4114 272.549 12.1624C271.878 10.8173 270.728 9.85648 269.291 9.56824C267.757 9.18393 266.128 9.18393 264.595 9.47217C262.582 9.56824 260.57 10.1447 258.749 11.0094C257.024 11.8741 255.682 13.4114 255.012 15.2368V15.429C254.916 15.7172 254.82 16.0055 254.724 16.1976C254.532 16.4859 254.341 16.8702 254.053 17.0623L253.957 17.1584C251.849 19.4643 251.274 22.6348 252.328 25.5172C252.52 25.9015 252.328 26.2858 252.041 26.478C252.041 26.478 252.041 26.478 251.945 26.478C251.849 26.3819 251.753 26.3819 251.657 26.3819Z" fill="#231F20"/>
<path d="M261.241 23.9799C261.145 23.9799 261.049 23.9799 260.953 23.8838C260.57 23.6917 260.474 23.3074 260.666 22.9231C261.049 22.2505 261.624 21.674 262.486 21.4819C263.349 21.3858 264.211 21.674 264.786 22.3466C265.074 22.6348 265.074 23.0191 264.786 23.3074C264.499 23.5956 264.116 23.5956 263.828 23.3074C263.541 23.0191 263.157 22.827 262.678 22.827C262.391 22.9231 262.103 23.2113 261.911 23.4995C261.72 23.7878 261.528 23.9799 261.241 23.9799Z" fill="#231F20"/>
<path d="M268.332 23.6917H268.237C267.853 23.5956 267.662 23.2113 267.662 22.9231C267.853 22.0584 268.332 21.2897 269.099 20.9054C269.962 20.7133 270.824 20.9054 271.399 21.4819C271.687 21.7701 271.782 22.1544 271.495 22.4427C271.207 22.7309 270.824 22.827 270.537 22.5388C270.153 22.2505 269.77 22.0584 269.578 22.1544C269.387 22.2505 269.099 22.827 269.003 23.1152C268.907 23.4995 268.62 23.6917 268.332 23.6917Z" fill="#231F20"/>
<path d="M266.799 32.9151H266.703C264.978 32.9151 263.541 31.6661 262.295 29.3602C262.103 28.9759 262.199 28.5916 262.582 28.3995C262.966 28.2073 263.349 28.3034 263.541 28.6877C264.499 30.5132 265.553 31.4739 266.703 31.4739H266.799C268.716 31.4739 270.632 29.072 271.207 28.1112C271.399 27.823 271.878 27.7269 272.166 27.9191C272.453 28.1112 272.549 28.5916 272.357 28.8798C272.261 29.072 269.866 32.9151 266.799 32.9151Z" fill="#231F20"/>
<path d="M253.095 41.9465L187.162 69.3287V79.8012L243.799 67.4072L253.095 41.9465Z" fill="#99BC85"/>
<path d="M267.087 47.7112L264.212 50.4974L266.512 52.0347C266.512 52.0347 264.116 70.0013 255.587 72.5954C247.057 75.1895 243.799 74.3248 243.799 74.3248L239.103 80.3777C239.103 80.3777 246.387 82.4914 246.866 82.6835C247.345 82.8757 262.774 79.2247 265.266 69.713C266.703 64.0444 267.662 58.2798 268.141 52.5151L269.674 50.5935L267.087 47.7112Z" fill="#231F20"/>
<path d="M257.599 66.2542C257.407 66.2542 257.12 66.1581 257.024 65.9659L249.837 56.166C249.645 55.8777 249.645 55.4934 249.933 55.3013L253.957 51.0738L248.878 49.7287C248.495 49.6327 248.303 49.2484 248.399 48.8641C248.399 48.768 248.495 48.6719 248.591 48.5758L255.203 41.5621C255.491 41.2739 255.874 41.2739 256.162 41.5621C256.449 41.8504 256.449 42.2347 256.162 42.5229L250.412 48.6719L255.491 50.017C255.682 50.1131 255.874 50.3052 255.97 50.4974C256.066 50.7856 255.97 50.9778 255.778 51.1699L251.274 55.7817L258.078 65.1012C258.27 65.3895 258.27 65.8698 257.887 66.062C257.887 66.1581 257.791 66.2542 257.599 66.2542Z" fill="#231F20"/>
<path d="M231.628 96.3266C231.245 96.3266 230.957 95.9423 231.053 95.558C231.053 95.2697 231.245 95.0776 231.532 94.9815C235.941 93.8285 244.087 91.3305 244.182 91.3305C244.566 91.2344 244.949 91.4266 245.045 91.8109C245.141 92.1952 244.949 92.4835 244.566 92.6756C244.47 92.6756 236.324 95.1736 231.916 96.3266C231.82 96.3266 231.724 96.3266 231.628 96.3266Z" fill="#231F20"/>
<path d="M234.983 69.2326C234.887 69.2326 234.887 69.2326 234.791 69.2326C234.408 69.1365 234.216 68.7522 234.312 68.3679C234.312 68.2718 236.803 57.7032 238.433 52.1307C238.528 51.7464 238.912 51.5543 239.295 51.6503C239.678 51.7464 239.87 52.1307 239.774 52.515C238.145 57.9915 235.653 68.5601 235.653 68.6561C235.653 69.0405 235.366 69.2326 234.983 69.2326Z" fill="#231F20"/>
<path d="M273.412 35.7014L323.341 8.41528L332.157 17.2545L281.078 50.4014L273.412 35.7014Z" fill="#99BC85"/>
<path d="M286.157 53.0916C285.774 53.0916 285.487 52.7073 285.487 52.323C285.487 52.2269 286.445 40.3132 283.762 36.0858C283.57 35.7975 283.666 35.3171 283.953 35.125C284.241 34.9328 284.72 35.0289 284.912 35.3172C287.787 39.9289 286.828 51.9386 286.828 52.419C286.924 52.8033 286.541 53.0916 286.157 53.0916Z" fill="#231F20"/>
<path d="M276.766 59.1445C276.67 59.1445 276.574 59.1445 276.574 59.1445C276.191 59.0484 275.999 58.568 276.191 58.2798L280.216 46.9426L275.232 45.7896C275.041 45.6936 274.849 45.5975 274.753 45.4053C274.657 45.2132 274.657 44.9249 274.849 44.7328L278.107 39.5446L273.891 38.6799C273.507 38.5838 273.22 38.2956 273.316 37.9112C273.412 37.5269 273.699 37.2387 274.082 37.3348H274.178L279.449 38.3916C279.641 38.4877 279.832 38.5838 279.928 38.776C280.024 38.9681 280.024 39.2563 279.832 39.4485L276.574 44.7328L281.366 45.8857C281.557 45.8857 281.749 46.0779 281.845 46.27C281.941 46.4622 281.941 46.6543 281.845 46.8465L277.532 58.8562C277.341 58.9523 277.053 59.1445 276.766 59.1445Z" fill="#231F20"/>
<path d="M268.141 89.409C267.757 89.409 267.47 89.1208 267.47 88.7365C267.47 88.5443 267.853 70.1934 267.566 60.4896C267.566 60.1053 267.853 59.817 268.237 59.817C268.62 59.817 268.907 60.1053 269.003 60.4896C269.195 70.1934 268.907 88.5443 268.907 88.7365C268.812 89.1208 268.524 89.409 268.141 89.409Z" fill="#D1D3D4"/>
<path d="M223.003 167.232L217.541 177.032C217.541 177.032 250.028 185.199 249.261 181.067C248.495 176.936 240.062 169.73 240.062 169.73L223.003 167.232Z" fill="#F1F1F1"/>
<path d="M246.195 182.893C238.528 182.893 221.47 178.665 217.445 177.705C217.062 177.609 216.87 177.224 216.966 176.84C216.966 176.744 216.966 176.744 217.062 176.648L222.524 166.848C222.62 166.56 222.907 166.464 223.291 166.464L240.445 169.058C240.541 169.058 240.732 169.154 240.828 169.25C241.212 169.538 249.453 176.648 250.22 180.971C250.316 181.452 250.124 181.836 249.837 182.22C249.166 182.701 247.92 182.893 246.195 182.893ZM218.691 176.648C232.395 180.01 247.537 182.701 248.687 181.259C248.112 178.281 242.266 172.613 239.87 170.595L223.387 168.001L218.691 176.648Z" fill="#231F20"/>
<path d="M287.116 161.467L285.391 171.844C285.391 171.844 317.111 166.175 315.674 161.563C314.236 156.952 305.995 158.393 305.995 158.393" fill="#F1F1F1"/>
<path d="M285.391 172.516C285.199 172.516 285.007 172.42 284.911 172.324C284.72 172.132 284.72 171.94 284.72 171.748L286.445 161.468C286.541 161.083 286.828 160.795 287.211 160.891C287.595 160.987 287.882 161.275 287.786 161.66L286.253 170.979C297.178 168.962 313.182 165.118 315.003 162.14C315.099 161.948 315.099 161.756 315.099 161.756C313.853 157.817 306.282 159.066 306.186 159.066C305.803 159.162 305.42 158.873 305.42 158.489C305.42 158.105 305.611 157.72 305.995 157.72C306.378 157.624 314.907 156.183 316.44 161.371C316.632 161.852 316.536 162.428 316.249 162.909C313.47 167.424 288.457 172.036 285.582 172.516H285.391Z" fill="#231F20"/>
</svg>
