<svg width="317" height="236" viewBox="0 0 317 236" fill="none" xmlns="http://www.w3.org/2000/svg">
<path d="M182.64 77.44H101.84C99.2 77.44 97.04 75.28 97.04 72.64V17.2C97.04 16.88 97.28 16.72 97.52 16.72H186.88C187.2 16.72 187.36 16.96 187.36 17.2V72.64C187.36 75.28 185.28 77.44 182.64 77.44ZM98.08 17.76V72.64C98.08 74.72 99.76 76.4 101.84 76.4H182.64C184.72 76.4 186.4 74.72 186.4 72.64V17.76H98.08Z" fill="#231F20"/>
<path d="M186.88 17.7601H97.52C97.2 17.7601 97.04 17.5201 97.04 17.2801V13.6C97.04 10.96 99.2 8.80005 101.84 8.80005H182.64C185.28 8.80005 187.44 10.96 187.44 13.6V17.2801C187.44 17.5201 187.2 17.7601 186.88 17.7601ZM98.08 16.7201H186.4V13.5201C186.4 11.4401 184.72 9.76005 182.64 9.76005H101.84C99.76 9.76005 98.08 11.4401 98.08 13.5201V16.7201Z" fill="#231F20"/>
<path d="M119.52 39.44C122.701 39.44 125.28 36.8612 125.28 33.68C125.28 30.4989 122.701 27.92 119.52 27.92C116.339 27.92 113.76 30.4989 113.76 33.68C113.76 36.8612 116.339 39.44 119.52 39.44Z" fill="#99BC85"/>
<path d="M109.04 51.12C109.04 45.36 113.76 40.64 119.52 40.64C125.28 40.64 130 45.36 130 51.12H109.04Z" fill="#99BC85"/>
<path d="M169.983 36.3763C171.46 33.5588 170.373 30.0776 167.555 28.6009C164.738 27.1242 161.256 28.2112 159.78 31.0288C158.303 33.8463 159.39 37.3275 162.208 38.8042C165.025 40.2809 168.506 39.1939 169.983 36.3763Z" fill="#99BC85"/>
<path d="M154.4 51.12C154.4 45.36 159.12 40.64 164.88 40.64C170.64 40.64 175.36 45.36 175.36 51.12H154.4Z" fill="#99BC85"/>
<path d="M152 34.1601H138.56C138.24 34.1601 138.08 33.9201 138.08 33.6801C138.08 33.3601 138.32 33.2001 138.56 33.2001H150.8L148.16 30.4001C148 30.1601 148 29.8401 148.24 29.6801C148.4 29.5201 148.72 29.5201 148.88 29.6801L152.4 33.3601C152.56 33.5201 152.56 33.7601 152.48 33.9201C152.4 34.0801 152.24 34.1601 152 34.1601Z" fill="#231F20"/>
<path d="M148.64 37.44C148.48 37.44 148.4 37.36 148.24 37.28C148.08 37.12 148 36.8 148.24 36.56L151.6 33.28C151.84 33.12 152.16 33.12 152.32 33.36C152.48 33.52 152.48 33.84 152.32 34L148.96 37.28C148.88 37.44 148.72 37.44 148.64 37.44Z" fill="#231F20"/>
<path d="M145.68 38.48H132.24C132 38.48 131.84 38.32 131.76 38.16C131.68 38 131.68 37.76 131.84 37.6L135.36 33.92C135.52 33.68 135.84 33.68 136.08 33.84C136.32 34 136.32 34.32 136.16 34.56L136.08 34.64L133.44 37.44H145.68C146 37.44 146.16 37.68 146.16 37.92C146.16 38.32 145.92 38.48 145.68 38.48Z" fill="#231F20"/>
<path d="M135.6 41.76C135.44 41.76 135.36 41.68 135.28 41.6L131.92 38.32C131.76 38.08 131.76 37.76 131.92 37.6C132.08 37.44 132.4 37.36 132.64 37.6L136 40.88C136.16 41.04 136.24 41.36 136 41.6C135.84 41.76 135.68 41.76 135.6 41.76Z" fill="#231F20"/>
<path d="M168.8 57.84H115.52C115.2 57.84 114.96 57.6 114.96 57.28C114.96 56.96 115.2 56.72 115.52 56.72H168.8C169.12 56.72 169.36 56.96 169.36 57.28C169.36 57.6 169.12 57.84 168.8 57.84C168.88 57.84 168.88 57.84 168.8 57.84Z" fill="#9D9D9D"/>
<path d="M168.8 61.6801H115.52C115.2 61.6801 114.96 61.4401 114.96 61.1201C114.96 60.8001 115.2 60.5601 115.52 60.5601H168.8C169.12 60.5601 169.36 60.8001 169.36 61.1201C169.36 61.4401 169.12 61.6801 168.8 61.6801C168.88 61.6801 168.88 61.6801 168.8 61.6801Z" fill="#9D9D9D"/>
<path d="M163.36 65.4401H115.6C115.28 65.4401 115.04 65.2001 115.04 64.8801C115.04 64.5601 115.28 64.3201 115.6 64.3201H163.36C163.68 64.3201 163.92 64.5601 163.92 64.8801C163.92 65.2001 163.68 65.4401 163.36 65.4401Z" fill="#9D9D9D"/>
<path d="M103.84 14.64C104.591 14.64 105.2 14.0312 105.2 13.28C105.2 12.5289 104.591 11.92 103.84 11.92C103.089 11.92 102.48 12.5289 102.48 13.28C102.48 14.0312 103.089 14.64 103.84 14.64Z" fill="#99BC85"/>
<path d="M108.64 14.64C109.391 14.64 110 14.0312 110 13.28C110 12.5289 109.391 11.92 108.64 11.92C107.889 11.92 107.28 12.5289 107.28 13.28C107.28 14.0312 107.889 14.64 108.64 14.64Z" fill="#9D9D9D"/>
<path d="M113.44 14.64C114.191 14.64 114.8 14.0312 114.8 13.28C114.8 12.5289 114.191 11.92 113.44 11.92C112.689 11.92 112.08 12.5289 112.08 13.28C112.08 14.0312 112.689 14.64 113.44 14.64Z" fill="#9D9D9D"/>
<path d="M310.4 154.32H206.32C202.88 154.32 200.16 151.6 200.16 148.16V12.16C200.16 11.84 200.4 11.6 200.72 11.6H316C316.32 11.6 316.56 11.84 316.56 12.16V148.24C316.56 151.6 313.76 154.32 310.4 154.32ZM201.28 12.72V148.24C201.28 151.04 203.52 153.28 206.32 153.28H310.4C313.2 153.28 315.44 151.04 315.44 148.24V12.72H201.28Z" fill="#231F20"/>
<path d="M292.48 142.56H224.16C221.12 142.56 218.72 140.08 218.72 137.12V133.92C218.72 130.88 221.2 128.48 224.16 128.48H292.48C295.52 128.48 297.92 130.96 297.92 133.92V137.12C297.92 140.16 295.52 142.56 292.48 142.56ZM224.24 129.52C221.84 129.52 219.92 131.44 219.92 133.84V137.04C219.92 139.44 221.84 141.36 224.24 141.36H292.56C294.96 141.36 296.88 139.44 296.88 137.04V133.84C296.88 131.44 294.96 129.52 292.56 129.52H224.24Z" fill="#231F20"/>
<path d="M226.32 49.4399H217.2V115.28H226.32V49.4399Z" fill="#99BC85"/>
<path d="M243.2 64.88H234.08V115.36H243.2V64.88Z" fill="#99BC85"/>
<path d="M260 54.8H250.88V115.28H260V54.8Z" fill="#99BC85"/>
<path d="M276.88 73.04H267.76V115.28H276.88V73.04Z" fill="#99BC85"/>
<path d="M293.76 54.8H284.64V115.28H293.76V54.8Z" fill="#99BC85"/>
<path d="M293.6 24.08H278.16C277.84 24.08 277.6 23.84 277.6 23.52C277.6 23.2 277.84 22.96 278.16 22.96H293.6C293.92 22.96 294.16 23.2 294.16 23.52C294.16 23.84 293.84 24.08 293.6 24.08Z" fill="#231F20"/>
<path d="M288.16 29.84H278.08C277.76 29.84 277.52 29.6 277.52 29.28C277.52 28.96 277.76 28.72 278.08 28.72H288.16C288.48 28.72 288.72 28.96 288.72 29.28C288.72 29.6 288.48 29.84 288.16 29.84Z" fill="#231F20"/>
<path d="M273.44 55.52C268.56 55.52 264.32 50.08 260.88 45.68C258.64 42.8 256.56 40.16 255.12 40.16C253.52 40.24 251.36 41.44 249.04 42.8C245.92 44.64 242.32 46.72 238.96 46.48C232.64 46.16 220.88 32.24 220.4 31.68C220.24 31.44 220.32 31.12 220.56 30.96C220.72 30.88 220.96 30.88 221.2 31.04C221.28 31.2 233.2 45.12 239.04 45.44C242.16 45.6 245.52 43.6 248.56 41.84C250.96 40.4 253.28 39.12 255.2 39.04C257.12 38.96 259.2 41.6 261.84 44.96C265.2 49.28 269.36 54.56 273.84 54.4C277.76 54.24 279.6 50.8 281.52 47.2C283.44 43.76 285.36 40.16 289.28 39.44C289.6 39.36 289.84 39.6 289.92 39.84C290 40.16 289.76 40.4 289.52 40.48C286.08 41.12 284.32 44.32 282.48 47.68C280.48 51.36 278.4 55.2 273.84 55.36H273.52L273.44 55.52Z" fill="#9D9D9D"/>
<path d="M301.6 115.84H209.76C209.44 115.84 209.2 115.6 209.2 115.28C209.2 114.96 209.44 114.72 209.76 114.72H301.6C301.92 114.72 302.16 114.96 302.16 115.28C302.16 115.6 301.92 115.84 301.6 115.84Z" fill="#9D9D9D"/>
<path d="M220.96 33.3599C219.84 33.3599 218.88 32.4 218.88 31.28C218.88 30.16 219.84 29.2 220.96 29.2C222.08 29.2 223.04 30.16 223.04 31.28C223.04 32.4 222.08 33.3599 220.96 33.3599ZM220.96 30.24C220.4 30.24 220 30.72 220 31.2C220 31.76 220.48 32.1599 220.96 32.1599C221.52 32.1599 221.92 31.68 221.92 31.2C222 30.72 221.52 30.24 220.96 30.24Z" fill="#9D9D9D"/>
<path d="M289.36 42.08C288.24 42.08 287.28 41.12 287.28 40C287.28 38.88 288.24 37.92 289.36 37.92C290.48 37.92 291.44 38.88 291.44 40C291.36 41.12 290.48 42.08 289.36 42.08ZM289.36 39.04C288.8 39.04 288.4 39.52 288.4 40C288.4 40.56 288.88 40.96 289.36 40.96C289.92 40.96 290.32 40.48 290.32 40C290.32 39.44 289.84 39.04 289.36 39.04Z" fill="#9D9D9D"/>
<path d="M316 12.72H200.72C200.4 12.72 200.16 12.48 200.16 12.16V6.16C200.16 2.72 202.88 0 206.32 0H310.4C313.84 0 316.56 2.72 316.56 6.16V12.16C316.56 12.48 316.32 12.72 316 12.72ZM201.28 11.6H315.44V6.16C315.44 3.36 313.2 1.12 310.4 1.12H206.32C203.52 1.12 201.28 3.36 201.28 6.16V11.6Z" fill="#231F20"/>
<path d="M81.76 175.2H4.64C2.08 175.2 0 173.12 0 170.56V73.92C0 71.36 2.08 69.28 4.64 69.28H81.76C84.32 69.28 86.4 71.36 86.4 73.92V170.56C86.48 173.12 84.32 175.2 81.76 175.2ZM4.64 70.32C2.64 70.32 1.12 71.92 1.12 73.84V170.48C1.12 172.48 2.72 174 4.64 174H81.76C83.76 174 85.28 172.4 85.28 170.48V73.92C85.28 71.92 83.68 70.4 81.76 70.4H4.64V70.32Z" fill="#231F20"/>
<path d="M64.32 152.48H18.32C18 152.48 17.76 152.24 17.76 151.92C17.76 151.6 18 151.36 18.32 151.36H64.32C64.64 151.36 64.88 151.6 64.88 151.92C64.88 152.24 64.64 152.48 64.32 152.48Z" fill="#9D9D9D"/>
<path d="M42.08 160H18.32C18 160 17.76 159.76 17.76 159.44C17.76 159.12 18 158.88 18.32 158.88H42.08C42.4 158.88 42.64 159.12 42.64 159.44C42.72 159.76 42.4 160 42.08 160C42.16 160 42.16 160 42.08 160Z" fill="#9D9D9D"/>
<path d="M21.2001 93.36L41.2801 113.44C41.5201 113.68 41.7601 113.76 42.0801 113.76C52.1601 113.76 62.2401 113.76 72.3201 113.76H72.8001C72.2401 130.16 58.4801 142.96 42.0801 142.4C25.6801 141.84 12.8801 128.08 13.4401 111.68C13.6801 104.8 16.3201 98.24 20.8001 93.12L21.2001 93.36Z" fill="#99BC85"/>
<path d="M44.24 83.04V111.68C44.32 111.68 44.4 111.68 44.56 111.68L72.32 111.6C72.96 111.6 72.96 111.6 72.88 110.96C72.16 99.84 65.36 90.08 55.2 85.52C52.16 84.24 48.88 83.36 45.6 83.12L44.24 83.04Z" fill="#9D9D9D"/>
<path d="M42.0801 111.28V83.04C38.7201 83.2 35.4401 83.92 32.3201 85.12C28.5601 86.56 25.2001 88.8 22.3201 91.6L42.0801 111.28Z" fill="#9D9D9D"/>
<path d="M261.92 224.88H221.28C218.64 224.88 216.4 222.72 216.4 220V175.12C216.4 172.48 218.56 170.24 221.28 170.24H257.2C257.36 170.24 257.52 170.32 257.6 170.4L266.64 179.2C266.72 179.28 266.8 179.44 266.8 179.6V220C266.72 222.72 264.56 224.88 261.92 224.88ZM221.28 171.44C219.2 171.44 217.52 173.12 217.52 175.2V220.08C217.52 222.16 219.2 223.84 221.28 223.84H261.92C264 223.84 265.68 222.16 265.68 220.08V179.92L256.88 171.44H221.28Z" fill="#231F20"/>
<path d="M207.68 8.40005C208.74 8.40005 209.6 7.54045 209.6 6.48006C209.6 5.41967 208.74 4.56006 207.68 4.56006C206.62 4.56006 205.76 5.41967 205.76 6.48006C205.76 7.54045 206.62 8.40005 207.68 8.40005Z" fill="#99BC85"/>
<path d="M214.24 8.40005C215.3 8.40005 216.16 7.54045 216.16 6.48006C216.16 5.41967 215.3 4.56006 214.24 4.56006C213.18 4.56006 212.32 5.41967 212.32 6.48006C212.32 7.54045 213.18 8.40005 214.24 8.40005Z" fill="#9D9D9D"/>
<path d="M220.72 8.40005C221.78 8.40005 222.64 7.54045 222.64 6.48006C222.64 5.41967 221.78 4.56006 220.72 4.56006C219.66 4.56006 218.8 5.41967 218.8 6.48006C218.8 7.54045 219.66 8.40005 220.72 8.40005Z" fill="#9D9D9D"/>
<path d="M256.8 36C256.64 36 256.56 35.92 256.48 35.84C256.24 35.68 256.24 35.28 256.4 35.12L261.2 29.3599C261.28 29.1999 261.44 29.2 261.6 29.2H273.68C274 29.2 274.24 29.4399 274.24 29.7599C274.24 30.0799 274 30.32 273.68 30.32H261.84L257.12 35.84C257.12 35.92 256.96 36 256.8 36Z" fill="#9D9D9D"/>
<path d="M257.12 170.88V179.92L266.16 179.68L257.12 170.88Z" fill="#99BC85"/>
<path d="M257.12 180.56C256.96 180.56 256.8 180.48 256.72 180.4C256.64 180.32 256.56 180.16 256.56 180V170.88C256.56 170.56 256.8 170.32 257.12 170.32C257.28 170.32 257.44 170.4 257.52 170.48L266.56 179.28C266.72 179.44 266.8 179.68 266.72 179.92C266.64 180.16 266.48 180.24 266.24 180.32L257.12 180.56ZM257.68 172.16V179.36L264.88 179.12L257.68 172.16Z" fill="#231F20"/>
<path d="M48.88 194.56H62.16C63.36 194.56 64.32 195.52 64.32 196.72V210C64.32 211.2 63.36 212.16 62.16 212.16H48.88C47.68 212.16 46.72 211.2 46.72 210V196.72C46.72 195.52 47.68 194.56 48.88 194.56Z" fill="#99BC85"/>
<path d="M58.2399 207.04H46.3199C44.3999 207.04 42.8799 205.52 42.8799 203.6V191.68C42.8799 189.76 44.3999 188.24 46.3199 188.24H58.2399C60.1599 188.24 61.6799 189.76 61.6799 191.68V203.6C61.6799 205.52 60.1599 207.04 58.2399 207.04ZM46.3199 189.44C45.0399 189.44 43.9999 190.48 43.9999 191.76V203.68C43.9999 204.96 45.0399 206 46.3199 206H58.2399C59.5199 206 60.5599 204.96 60.5599 203.68V191.76C60.5599 190.48 59.5199 189.44 58.2399 189.44H46.3199Z" fill="#231F20"/>
<path d="M239.12 214.32V211.68C238.16 211.44 237.2 211.2 236.32 210.88C234.56 210.32 233.04 209.2 232 207.68C231.12 206.32 230.72 204.8 230.8 203.2H236C236.08 205.04 237.36 206.64 239.2 207.04V200C238.16 199.68 237.12 199.44 236.08 199.12C234.96 198.8 233.92 198.24 233.04 197.44C232.16 196.56 231.6 195.44 231.36 194.16C231.04 192.64 231.2 191.12 231.68 189.68C232.48 187.6 234.08 185.92 236.24 185.2C237.12 184.96 238 184.72 238.88 184.56L239.2 184.48V180.96H244V181.28C244 182.24 244 183.28 244 184.32C244 184.56 244.08 184.64 244.32 184.72C246 185.04 247.52 185.76 248.8 186.8C250.16 187.92 251.12 189.52 251.36 191.28C251.44 191.76 251.44 192.24 251.52 192.72H246.24C246.24 191.28 245.36 189.92 244 189.36V195.92L244.56 196.08C246 196.4 247.36 196.8 248.64 197.36C250.64 198.24 252 200.16 252.24 202.32C252.56 204.32 252.08 206.4 250.88 208C249.92 209.36 248.56 210.32 246.96 210.88C246 211.2 244.96 211.44 243.92 211.76V214.32H239.12ZM244 201.04V207.12C244.8 207.04 245.52 206.64 246.16 206.16C247.28 205.28 247.68 202.96 246.08 201.92C245.36 201.6 244.72 201.28 244 201.04ZM239.12 194.8V188.88C238.48 189.12 237.84 189.44 237.28 189.84C235.92 190.72 235.76 193.2 237.44 194.08C238 194.32 238.56 194.56 239.12 194.8Z" fill="#99BC85"/>
<path d="M131.04 96.08C124.48 94.08 120.96 86.4 119.2 80.24C117.2 73.28 114.88 67.52 117.68 60.32C118.32 58.64 119.36 56.88 121.04 56.4C121.44 56.32 121.84 56.16 122.24 56C122.56 55.68 122.72 55.36 122.88 54.96C126.88 45.52 138.24 45.28 146.72 46.56C151.68 47.36 158.08 49.6 159.6 54.64C162.4 64 160.08 74.16 154.88 82.16C150.08 89.76 140.88 99.04 131.04 96.08Z" fill="#F1F1F1"/>
<path d="M134.8 97.2C133.44 97.2 132.16 97.04 130.88 96.64C124 94.56 120.4 86.72 118.64 80.4C118.4 79.6 118.16 78.8 117.92 78.08C116.16 72 114.56 66.72 117.12 60.08C118 57.68 119.28 56.32 120.88 55.84L121.2 55.76C121.44 55.76 121.68 55.6801 121.84 55.5201C122 55.2801 122.16 55.04 122.24 54.8C126.4 44.96 137.84 44.64 146.72 46C150.08 46.56 158.24 48.4 160 54.48C162.72 63.36 160.96 73.6 155.2 82.48C150.56 90 142.96 97.2 134.8 97.2ZM139.76 46.48C133.04 46.48 126.32 48.4001 123.44 55.1201C123.28 55.6001 123.04 56.08 122.64 56.4C122.32 56.64 121.92 56.8 121.52 56.88C121.44 56.88 121.36 56.88 121.2 56.96C120 57.28 118.96 58.48 118.16 60.48C115.76 66.72 117.28 71.84 118.96 77.76L119.68 80.08C121.36 86.08 124.72 93.6001 131.12 95.5201C140.08 98.2401 149.04 90.24 154.4 81.84C159.92 73.2 161.68 63.36 159.04 54.8C157.44 49.36 149.84 47.6001 146.64 47.1201C144.4 46.7201 142.08 46.56 139.76 46.48Z" fill="#231F20"/>
<path d="M160.96 77.2001C160.96 77.2001 168.08 86.0801 166.96 88.0801C165.84 90.0801 161.44 89.2001 161.44 89.2001" fill="#F1F1F1"/>
<path d="M163.52 90C162.8 90 162 89.92 161.28 89.76C160.96 89.68 160.8 89.36 160.88 89.12C160.96 88.8 161.2 88.64 161.52 88.64C162.64 88.88 165.68 89.12 166.4 87.76C166.96 86.64 163.76 81.6 160.48 77.44C160.24 77.2 160.24 76.88 160.48 76.64C160.72 76.4 161.04 76.4 161.28 76.64L161.36 76.72C163.04 78.88 168.56 86 167.36 88.24C166.72 89.68 165.04 90 163.52 90Z" fill="#231F20"/>
<path d="M158.56 64.88C162.8 67.76 162.32 74.72 162.64 79.12C163.2 85.36 163.52 91.68 163.76 97.92C163.92 101.92 153.68 102.88 151.76 101.92L154.8 117.44L132.48 111.12L131.52 92.96C131.52 92.96 138.32 92.4 141.6 84C144.88 75.6 143.6 63.2 143.6 63.2C143.6 63.2 154.4 62.08 158.56 64.88Z" fill="#F1F1F1"/>
<path d="M154.72 117.92C154.64 117.92 154.64 117.92 154.56 117.92L132.24 111.6C132 111.52 131.84 111.36 131.84 111.12L130.88 92.96C130.88 92.64 131.12 92.4 131.36 92.4C131.6 92.4 137.84 91.76 140.96 83.76C144.16 75.52 142.88 63.28 142.88 63.2C142.88 63.04 142.88 62.88 142.96 62.8C143.04 62.72 143.2 62.64 143.36 62.64C143.84 62.64 154.48 61.6 158.72 64.48C162.48 67.04 162.72 72.4001 162.88 76.72C162.88 77.6 162.96 78.4001 163.04 79.1201C163.52 85.3601 163.92 91.68 164.16 97.9201C164.16 98.7201 163.84 99.92 162.24 100.96C159.6 102.56 154.72 103.12 152.32 102.72L155.2 117.36C155.28 117.68 155.04 117.92 154.8 118C154.8 117.92 154.8 117.92 154.72 117.92ZM132.96 110.64L154 116.56L151.12 101.92C151.04 101.68 151.2 101.52 151.36 101.36C151.52 101.2 151.76 101.2 152 101.28C153.28 101.92 159.04 101.6 161.76 99.84C162.72 99.2 163.2 98.56 163.2 97.84C162.96 91.6 162.56 85.28 162.08 79.04C162 78.32 162 77.44 161.92 76.56C161.76 72.48 161.52 67.44 158.24 65.2C154.8 62.88 146.4 63.3601 144.16 63.5201C144.4 66.0801 145.04 76.48 142.08 84.08C139.2 91.44 133.84 93.04 132.08 93.36L132.96 110.64Z" fill="#231F20"/>
<path d="M163.2 93.28C163.2 93.28 157.04 93.28 155.6 84.96L163.2 93.28Z" fill="#F1F1F1"/>
<path d="M163.2 93.84C163.12 93.84 156.56 93.76 155.04 85.12C154.96 84.8 155.2 84.56 155.52 84.48C155.84 84.4 156.08 84.64 156.16 84.96C157.52 92.64 162.96 92.8 163.2 92.8C163.52 92.8 163.76 93.04 163.76 93.36C163.76 93.68 163.52 93.84 163.2 93.84Z" fill="#231F20"/>
<path d="M149.36 82.24C149.2 80.72 148.16 79.36 147.2 78.08C146.48 77.12 145.68 76.16 144.72 75.44C143.76 74.72 142.48 74.4 141.28 74.72C140.24 75.12 139.44 75.84 139.04 76.88C138.64 77.92 138.48 78.96 138.56 80.08C138.8 84.88 141.6 89.2 145.84 91.36C145.68 91.28 145.6 91.12 145.44 91.04" fill="#F1F1F1"/>
<path d="M145.76 92C145.68 92 145.6 92 145.52 91.92C141.04 89.6 138.16 85.12 137.92 80.08C137.84 78.88 138 77.76 138.48 76.64C138.96 75.44 139.92 74.56 141.12 74.16C142.48 73.84 143.92 74.08 145.04 74.96C146.08 75.76 146.96 76.64 147.68 77.68C148.56 78.88 149.76 80.32 149.92 82.08C149.92 82.4 149.68 82.64 149.36 82.64C149.04 82.64 148.8 82.48 148.8 82.16C148.64 80.72 147.68 79.44 146.8 78.32C146.16 77.36 145.36 76.56 144.4 75.84C143.52 75.2 142.48 74.96 141.44 75.2C140.56 75.52 139.84 76.16 139.52 77.04C139.12 78 138.96 78.96 139.04 80C139.28 84.32 141.6 88.24 145.28 90.48C145.44 90.48 145.6 90.48 145.76 90.64L146.16 90.96C146.4 91.2 146.4 91.52 146.24 91.76C146.08 91.92 145.92 92 145.76 92Z" fill="#231F20"/>
<path d="M151.76 101.92C151.76 101.92 146.32 100.72 143.44 97.36C143.44 97.36 144.4 105.68 152.8 107.68L151.76 101.92Z" fill="#231F20"/>
<path d="M152.8 108.16C152.72 108.16 152.72 108.16 152.64 108.16C143.92 106.08 142.8 97.4401 142.8 97.3601C142.8 97.1201 142.88 96.8801 143.12 96.8001C143.36 96.7201 143.6 96.8001 143.76 96.9601C146.4 100.16 151.68 101.36 151.68 101.36C151.92 101.44 152.08 101.6 152.08 101.84L153.2 107.52C153.2 107.68 153.2 107.92 153.04 108C153.12 108.08 152.96 108.16 152.8 108.16ZM144.48 99.0401C145.6 102.72 148.48 105.68 152.16 106.8L151.28 102.32C148.8 101.76 146.48 100.64 144.48 99.0401Z" fill="#231F20"/>
<path d="M157.96 73.2835C158.055 72.0501 157.739 71.0198 157.255 70.9824C156.77 70.9449 156.3 71.9144 156.205 73.1478C156.11 74.3812 156.425 75.4115 156.91 75.4489C157.394 75.4864 157.864 74.5169 157.96 73.2835Z" fill="#231F20"/>
<path d="M98.7201 148.16L87.2001 168.32L57.2801 137.6C57.2801 137.6 59.6801 124.56 56.4801 125.6C54.4801 126.32 52.6401 127.68 51.3601 129.36C51.3601 129.36 48.7201 111.36 41.7601 117.36C34.8001 123.36 38.0001 133.6 43.2801 143.52C47.2001 150.88 82.1601 204.72 91.8401 202.56C101.52 200.4 124.56 151.52 124.56 151.52L98.7201 148.16Z" fill="#F1F1F1"/>
<path d="M91.3601 203.28C80.3201 203.28 46.4001 150.48 42.8801 143.84C38.4801 135.52 33.5201 123.76 41.5201 116.96C42.9601 115.68 44.4001 115.36 45.7601 115.84C49.4401 117.2 51.2801 125.04 51.8401 128.08C53.1201 126.72 54.6401 125.68 56.4001 125.04C56.8801 124.88 57.4401 124.96 57.8401 125.28C59.6801 126.88 58.4001 135.12 58.0001 137.36L87.2001 167.36L98.3201 147.84C98.4001 147.68 98.6401 147.52 98.8801 147.52L124.72 150.88C124.88 150.88 125.04 151.04 125.12 151.2C125.2 151.36 125.2 151.52 125.12 151.68C124.24 153.68 101.92 200.88 92.0801 203.04C91.7601 203.28 91.6001 203.28 91.3601 203.28ZM44.4801 116.72C43.6001 116.8 42.7201 117.2 42.1601 117.84C36.5601 122.56 37.1201 130.72 43.8401 143.36C48.0801 151.36 82.8001 204.16 91.7601 202.16C100.48 200.24 120.88 158.08 123.76 152.08L99.0401 148.8L87.7601 168.64C87.6801 168.8 87.5201 168.88 87.3601 168.96C87.2001 168.96 87.0401 168.96 86.8801 168.8L56.9601 138.08C56.8001 137.92 56.8001 137.76 56.8001 137.6C57.6001 133.44 58.1601 127.2 57.0401 126.24C56.9601 126.24 56.8801 126.16 56.7201 126.24C54.8001 126.96 53.1201 128.16 51.9201 129.84C51.7601 130 51.5201 130.16 51.3601 130.08C51.1201 130 50.9601 129.84 50.9601 129.6C50.4801 126.48 48.6401 118.24 45.3601 116.96C44.9601 116.88 44.7201 116.8 44.4801 116.72Z" fill="#231F20"/>
<path d="M186.32 139.12C186.32 139.12 209.52 133.12 218.16 128C227.68 122.4 245.6 87.04 251.44 78.24C254.56 73.36 256.96 68.08 258.4 62.4C259.12 59.92 259.36 58.08 258.16 55.68C257.92 55.2 253.76 50.72 253.6 51.2C254.64 48.08 255.92 45.04 257.04 41.92C257.36 41.04 257.6 40 256.96 39.36C256.32 38.88 255.52 38.88 254.96 39.36C254.4 39.84 253.92 40.4 253.6 41.04L244.08 57.6C244.16 55.6 243.76 53.52 242.88 51.68C242.72 51.28 242.48 50.96 242.16 50.8C241.12 50.24 240.08 51.6 239.76 52.8C238.08 58.72 239.28 65.92 235.68 71.2C232.88 75.2 208.24 104.72 208.24 104.72L186.48 110.4" fill="#F1F1F1"/>
<path d="M186.32 139.68C186.08 139.68 185.84 139.52 185.76 139.28C185.68 138.96 185.84 138.64 186.16 138.56C186.4 138.48 209.36 132.56 217.84 127.52C224.72 123.44 236.4 102.96 244.16 89.36C246.96 84.48 249.36 80.24 250.88 77.92C254 73.12 256.32 67.84 257.76 62.24C258.4 59.92 258.72 58.16 257.52 55.84C256.32 54.32 254.96 52.96 253.52 51.68C253.44 51.68 253.36 51.68 253.28 51.68C252.96 51.6 252.8 51.28 252.96 50.96C253.68 48.96 254.4 46.96 255.12 45.04C255.52 43.92 256 42.8 256.4 41.68C256.8 40.72 256.8 40 256.4 39.68C256 39.44 255.44 39.44 255.04 39.76C254.56 40.16 254.16 40.72 253.84 41.28L244.32 57.84C244.16 58.08 243.92 58.16 243.68 58.08C243.44 58 243.28 57.76 243.28 57.52C243.36 55.6 242.96 53.68 242.16 51.84C242.08 51.6 241.92 51.36 241.68 51.2C241.52 51.12 241.36 51.12 241.28 51.2C240.72 51.6 240.32 52.16 240.16 52.88C239.6 55.12 239.28 57.52 239.12 59.84C238.72 63.92 238.32 68.08 236 71.44C233.2 75.44 209.52 103.84 208.48 105.04C208.4 105.12 208.32 105.2 208.16 105.2L186.4 110.88C186.08 110.96 185.84 110.8 185.76 110.48C185.68 110.16 185.84 109.84 186.16 109.76L207.76 104.16C209.6 101.92 232.48 74.56 235.04 70.8C237.28 67.6 237.6 63.6 238 59.68C238.16 57.28 238.56 54.88 239.12 52.56C239.36 51.52 240 50.64 240.88 50.16C241.36 50 241.84 50 242.24 50.24C242.64 50.48 243.04 50.96 243.2 51.44C243.84 52.8 244.24 54.16 244.4 55.6L252.96 40.72C253.36 40 253.84 39.36 254.48 38.8C255.28 38.16 256.4 38.24 257.2 38.88C257.92 39.52 258 40.64 257.44 42.08C257.04 43.2 256.64 44.32 256.16 45.44C255.52 47.2 254.8 48.96 254.16 50.8C255.76 52.16 257.2 53.68 258.48 55.28C259.84 57.92 259.44 59.92 258.8 62.48C257.36 68.16 254.96 73.6 251.76 78.48C250.24 80.8 247.84 84.96 245.04 89.84C236.8 104.32 225.44 124.16 218.32 128.4C209.68 133.52 187.28 139.28 186.32 139.68C186.24 139.6 186.24 139.6 186.16 139.6L186.32 139.68Z" fill="#231F20"/>
<path d="M191.84 235.68L184.64 202.72L112.32 222.16C112.32 222.16 112.48 227.6 112.64 235.68H191.84Z" fill="#231F20"/>
<path d="M206.4 102.48C206.4 102.48 124.16 100.72 113.76 115.44C105.6 127.68 98.8002 140.8 93.4402 154.48L108.24 168.32C108.16 187.84 109.2 207.44 111.2 226.8C136.72 231.28 189.44 210.88 189.04 210.72L182.32 142.4L213.76 132.72L206.4 102.48Z" fill="#99BC85"/>
<path d="M107.28 163.2C106.96 163.2 106.72 162.96 106.72 162.64C106.8 161.44 107.68 132.24 111.68 122.08C111.76 121.76 112.08 121.68 112.4 121.76C112.72 121.84 112.8 122.16 112.72 122.48C108.8 132.48 107.84 162.4 107.84 162.72C107.84 162.96 107.6 163.2 107.28 163.2Z" fill="#231F20"/>
<path d="M171.04 145.92C170.72 145.92 170.48 145.68 170.48 145.36C170.48 145.12 170.64 144.88 170.88 144.8L194.16 138.16C194.48 138.08 194.72 138.32 194.8 138.64C194.88 138.88 194.72 139.2 194.48 139.28L171.28 145.84C171.12 145.84 171.12 145.84 171.04 145.92Z" fill="#231F20"/>
</svg>
